<?xml version="1.0" encoding="UTF-8" standalone="no"?>
<!-- Created with Inkscape (http://www.inkscape.org/) -->

<svg
   xmlns:dc="http://purl.org/dc/elements/1.1/"
   xmlns:cc="http://creativecommons.org/ns#"
   xmlns:rdf="http://www.w3.org/1999/02/22-rdf-syntax-ns#"
   xmlns:svg="http://www.w3.org/2000/svg"
   xmlns="http://www.w3.org/2000/svg"
   xmlns:xlink="http://www.w3.org/1999/xlink"
   xmlns:sodipodi="http://sodipodi.sourceforge.net/DTD/sodipodi-0.dtd"
   xmlns:inkscape="http://www.inkscape.org/namespaces/inkscape"
   sodipodi:docname="TweetLanes-logo-512.svg"
   inkscape:version="0.48+devel r12027"
   version="1.1"
   id="svg2"
   height="512"
   width="512"
   inkscape:export-filename="./tweetlanes.png"
   inkscape:export-xdpi="90"
   inkscape:export-ydpi="90">
  <defs
     id="defs4">
    <linearGradient
       inkscape:collect="always"
       id="linearGradient1215">
      <stop
         style="stop-color:#ff7a04;stop-opacity:1"
         offset="0"
         id="stop1217" />
      <stop
         id="stop1223"
         offset="0.39575034"
         style="stop-color:#ff8102;stop-opacity:1" />
      <stop
         style="stop-color:#ff8b00;stop-opacity:1"
         offset="1"
         id="stop1219" />
    </linearGradient>
    <inkscape:path-effect
       effect="skeletal"
       id="path-effect2784"
       is_visible="true"
       pattern="m 932.67386,796.67432 c 0,56.62602 -10.60552,102.53048 -23.68808,102.53048 -13.08257,0 -23.68808,-45.90446 -23.68808,-102.53048 0,-56.62603 10.60551,-102.53049 23.68808,-102.53049 C 922.06834,694.14383 932.67386,740.04829 932.67386,796.67432 Z"
       copytype="single_stretched"
       prop_scale="0.45"
       scale_y_rel="false"
       spacing="0"
       normal_offset="0"
       tang_offset="0"
       prop_units="false"
       vertical_pattern="true"
       fuse_tolerance="0" />
    <inkscape:path-effect
       is_visible="true"
       id="path-effect4115"
       effect="spiro" />
    <inkscape:path-effect
       effect="spiro"
       id="path-effect4087"
       is_visible="true" />
    <inkscape:path-effect
       is_visible="true"
       id="path-effect4049"
       effect="spiro" />
    <inkscape:path-effect
       effect="spiro"
       id="path-effect4004"
       is_visible="true" />
    <inkscape:path-effect
       is_visible="true"
       id="path-effect3996"
       effect="spiro" />
    <inkscape:path-effect
       effect="spiro"
       id="path-effect3969"
       is_visible="true" />
    <inkscape:path-effect
       effect="spiro"
       id="path-effect3959"
       is_visible="true" />
    <inkscape:path-effect
       is_visible="true"
       id="path-effect3955"
       effect="spiro" />
    <inkscape:path-effect
       is_visible="true"
       id="path-effect3949"
       effect="spiro" />
    <inkscape:path-effect
       effect="spiro"
       id="path-effect3920"
       is_visible="true" />
    <inkscape:path-effect
       effect="spiro"
       id="path-effect3907"
       is_visible="true" />
    <inkscape:path-effect
       effect="spiro"
       id="path-effect3905"
       is_visible="true" />
    <inkscape:path-effect
       effect="spiro"
       id="path-effect3895"
       is_visible="true" />
    <inkscape:path-effect
       is_visible="true"
       id="path-effect3656"
       effect="spiro" />
    <inkscape:path-effect
       effect="spiro"
       id="path-effect3628"
       is_visible="true" />
    <inkscape:path-effect
       effect="spiro"
       id="path-effect3604"
       is_visible="true" />
    <inkscape:path-effect
       effect="spiro"
       id="path-effect3558"
       is_visible="true" />
    <inkscape:path-effect
       effect="spiro"
       id="path-effect3483"
       is_visible="true" />
    <inkscape:path-effect
       effect="spiro"
       id="path-effect3475"
       is_visible="true" />
    <inkscape:path-effect
       is_visible="true"
       id="path-effect3184"
       effect="spiro" />
    <inkscape:path-effect
       effect="spiro"
       id="path-effect3150"
       is_visible="true" />
    <inkscape:path-effect
       effect="spiro"
       id="path-effect3143"
       is_visible="true" />
    <clipPath
       clipPathUnits="userSpaceOnUse"
       id="clipPath3652">
      <path
         inkscape:connector-curvature="0"
         id="path3654"
         d="m 1445,1899.9274 c -41.4317,-2.6786 -82.0789,-12.9488 -121.2936,-26.5859 -91.6911,-31.886 -176.0292,-82.0392 -255.4985,-137.794 C 999.93704,1687.6494 934.30966,1634.963 880.20249,1571.5 764.6207,1435.9327 707.47104,1253.8999 716.91883,1076 c 4.23325,-79.71123 22.78541,-161.97867 73.47309,-223.64357 7.31406,-8.89803 15.23984,-17.29314 23.70287,-25.10643 -2.88193,13.69686 -5.04028,27.54594 -6.46303,41.47021 -5.15647,50.46562 -0.49086,102.13809 15.69136,150.21619 9.0204,26.8 21.69536,52.5977 39.50288,74.5636 25.25394,31.1512 60.33454,53.7131 98.36026,66.449 38.02572,12.7359 78.90084,15.9085 118.81374,12.02 11.6423,-1.1343 23.2205,-2.8575 34.8585,-4.0344 56.8461,-5.7488 115.1604,1.8229 168.1415,23.2128 73.5175,29.6811 134.6143,84.7976 182.5476,147.9497 47.9334,63.1521 83.7991,134.4835 118.3759,205.8294 24.2821,50.1038 48.3939,101.5176 55.4081,156.7518 3.5071,27.6171 2.5959,55.9838 -4.6989,82.85 -7.2948,26.8661 -21.1527,52.1942 -41.301,71.4049 -19.211,18.317 -43.6623,30.659 -69.3189,37.4642 C 1498.3562,1900.2026 1471.4885,1901.6399 1445,1899.9274 Z"
         style="fill:#ad7fa8;fill-opacity:1;display:inline"
         sodipodi:nodetypes="sssccscsssssssss"
         inkscape:path-effect="#path-effect3656"
         inkscape:original-d="m 1445,1899.9274 c -47.0433,-2.9331 -76.4569,-9.3802 -121.2936,-26.5859 -81.0624,-31.107 -173.9049,-82.2627 -255.4985,-137.794 C 986.61426,1680.0162 916.26953,1620.1094 880.20249,1571.5 776.24459,1422.4721 709.5289,1247.8205 716.91883,1076 722.06916,975.54319 740.89605,918.23631 790.39192,852.35643 805.2724,832.55025 814.09479,827.25 814.09479,827.25 c 0,0 -2.64439,19.13988 -6.46303,41.47021 -9.23035,53.97657 -1.16907,104.0742 15.69136,150.21619 10.64926,29.1439 24.6277,55.9441 39.50288,74.5636 44.56243,55.7795 134.02659,88.1045 217.174,78.469 9.625,-1.1154 25.3113,-2.9308 34.8585,-4.0344 63.5424,-7.3447 99.7058,-2.3522 168.1415,23.2128 139.0951,51.9607 240.5412,171.2252 300.9235,353.7791 35.3908,106.9968 39.6557,247.9829 9.4082,311.0067 C 1577.4269,1889.0726 1524.183,1904.8644 1445,1899.9274 Z" />
    </clipPath>
    <clipPath
       clipPathUnits="userSpaceOnUse"
       id="clipPath3945">
      <path
         style="fill:#ffd006;fill-opacity:1;display:inline"
         d="m 983,743 14.5672,30.01277 c 20.7345,35.72351 48.12,67.5721 80.3332,93.4255 32.9305,26.42908 70.9682,46.60391 111.5643,58.21726 19.7572,5.65194 40.0914,9.28451 60.5834,10.82283 17.1354,-2.39628 33.0909,-12.27148 42.879,-26.53881 10.4176,-15.18479 13.6358,-34.30409 13.1852,-52.71334 -0.1837,-7.50671 -0.9463,-15.07258 -3.3267,-22.19427 -2.3803,-7.12168 -6.4793,-13.81478 -12.44,-18.38141 -5.2505,-4.02252 -11.7322,-6.23697 -18.2935,-7.07245 -6.3204,-0.8048 -12.7954,-0.3769 -18.9549,1.25263 -16.1549,0.80719 -32.3652,0.50424 -48.4786,-0.90601 -32.5251,-2.8466 -64.5025,-10.18356 -95.9583,-18.93094 -19.6448,-5.46291 -39.1696,-11.49611 -57.9926,-19.33547 -18.8094,-7.8337 -36.8901,-17.45872 -56.15572,-24.0918 C 990.71293,745.25849 986.87312,744.06889 983,743 z m 237.0938,219 -28.6625,15.39973 c -17.8118,6.94383 -36.5773,11.43629 -55.6026,13.31124 -20.4025,2.01068 -41.0669,1.01216 -61.2668,-2.49094 -14.7811,-2.56337 -29.2975,-6.45413 -43.7289,-10.55132 -8.6693,-2.46128 -17.3168,-4.99904 -25.9413,-7.61291 l 5.853,13.64945 c 7.9214,14.44283 18.2377,27.56855 30.3997,38.67845 9.4773,8.6574 20.0604,16.0877 31.3427,22.2098 31.0774,16.8633 67.3193,23.5284 102.5479,20.508 11.5696,-0.992 23.0579,-2.9992 34.2447,-6.1129 11.2087,-3.1198 22.2756,-7.4426 31.4801,-14.5591 12.5158,-9.6767 21.0157,-24.544 22.4789,-40.2966 1.0286,-11.07321 -1.5567,-22.80078 -8.7406,-31.28993 -4.0969,-4.84123 -9.5851,-8.4913 -15.6338,-10.39764 C 1232.8155,960.53898 1226.2262,960.38265 1220.0938,962 Z"
         id="path3947"
         inkscape:connector-curvature="0"
         inkscape:path-effect="#path-effect3949"
         inkscape:original-d="m 983,743 c 0,0 9.50133,20.15033 14.5672,30.01277 21.5831,35.09452 47.5212,68.14702 80.3332,93.4255 33.0715,26.1547 70.83,46.8955 111.5643,58.21726 19.8618,5.16356 40.059,9.54195 60.5834,10.82283 17.7712,-0.11565 34.4765,-11.07615 42.879,-26.53881 8.9783,-16.00031 12.9347,-34.47023 13.1852,-52.71334 0.2034,-14.81509 -4.4753,-30.45053 -15.7667,-40.57568 -4.9894,-4.42048 -11.4334,-7.82617 -18.2935,-7.07245 -6.3176,0.48747 -12.5963,1.55156 -18.9549,1.25263 -16.1626,0.42006 -32.3626,0.61903 -48.4786,-0.90601 -32.6092,-2.3188 -64.9045,-8.72091 -95.9583,-18.93094 -19.4899,-5.90919 -38.8943,-12.22597 -57.9926,-19.33547 -19.0982,-7.1095 -37.8904,-15.01172 -56.15572,-24.0918 C 990.87593,744.84316 983,743 983,743 z m 237.0938,219 c -9.3894,5.40636 -18.0047,12.57007 -28.6625,15.39973 -17.7969,7.01686 -36.5513,11.54496 -55.6026,13.31124 -20.4074,2.27601 -41.0781,1.06911 -61.2668,-2.49094 -11.8584,-1.95894 -29.2759,-6.49999 -43.7289,-10.55132 -14.4529,-4.05132 -25.9413,-7.61291 -25.9413,-7.61291 0,0 3.5481,9.34614 5.853,13.64945 6.9344,15.72196 19.4896,27.47125 30.3997,38.67845 9.1883,9.0152 19.794,16.5257 31.3427,22.2098 31.3843,16.2483 67.4021,22.7209 102.5479,20.508 11.5197,-0.8873 23.1126,-2.7963 34.2447,-6.1129 11.1322,-3.3166 21.8035,-8.0409 31.4801,-14.5591 12.943,-9.1526 22.6377,-24.0782 22.4789,-40.2966 0.4038,-10.90985 -0.8995,-22.98369 -8.7406,-31.28993 C 1245.8842,963.4963 1232.2336,961.149 1220.0938,962 Z"
         sodipodi:nodetypes="ccccccscccccsccccccscccccscccc" />
    </clipPath>
    <clipPath
       clipPathUnits="userSpaceOnUse"
       id="clipPath3951">
      <path
         style="fill:#ffd006;fill-opacity:1;display:inline"
         d="m 983,743 14.5672,30.01277 c 20.7345,35.72351 48.12,67.5721 80.3332,93.4255 32.9305,26.42908 70.9682,46.60391 111.5643,58.21726 19.7572,5.65194 40.0914,9.28451 60.5834,10.82283 17.1354,-2.39628 33.0909,-12.27148 42.879,-26.53881 10.4176,-15.18479 13.6358,-34.30409 13.1852,-52.71334 -0.1837,-7.50671 -0.9463,-15.07258 -3.3267,-22.19427 -2.3803,-7.12168 -6.4793,-13.81478 -12.44,-18.38141 -5.2505,-4.02252 -11.7322,-6.23697 -18.2935,-7.07245 -6.3204,-0.8048 -12.7954,-0.3769 -18.9549,1.25263 -16.1549,0.80719 -32.3652,0.50424 -48.4786,-0.90601 -32.5251,-2.8466 -64.5025,-10.18356 -95.9583,-18.93094 -19.6448,-5.46291 -39.1696,-11.49611 -57.9926,-19.33547 -18.8094,-7.8337 -36.8901,-17.45872 -56.15572,-24.0918 C 990.71293,745.25849 986.87312,744.06889 983,743 z m 237.0938,219 -28.6625,15.39973 c -17.8118,6.94383 -36.5773,11.43629 -55.6026,13.31124 -20.4025,2.01068 -41.0669,1.01216 -61.2668,-2.49094 -14.7811,-2.56337 -29.2975,-6.45413 -43.7289,-10.55132 -8.6693,-2.46128 -17.3168,-4.99904 -25.9413,-7.61291 l 5.853,13.64945 c 7.9214,14.44283 18.2377,27.56855 30.3997,38.67845 9.4773,8.6574 20.0604,16.0877 31.3427,22.2098 31.0774,16.8633 67.3193,23.5284 102.5479,20.508 11.5696,-0.992 23.0579,-2.9992 34.2447,-6.1129 11.2087,-3.1198 22.2756,-7.4426 31.4801,-14.5591 12.5158,-9.6767 21.0157,-24.544 22.4789,-40.2966 1.0286,-11.07321 -1.5567,-22.80078 -8.7406,-31.28993 -4.0969,-4.84123 -9.5851,-8.4913 -15.6338,-10.39764 C 1232.8155,960.53898 1226.2262,960.38265 1220.0938,962 Z"
         id="path3953"
         inkscape:connector-curvature="0"
         inkscape:path-effect="#path-effect3955"
         inkscape:original-d="m 983,743 c 0,0 9.50133,20.15033 14.5672,30.01277 21.5831,35.09452 47.5212,68.14702 80.3332,93.4255 33.0715,26.1547 70.83,46.8955 111.5643,58.21726 19.8618,5.16356 40.059,9.54195 60.5834,10.82283 17.7712,-0.11565 34.4765,-11.07615 42.879,-26.53881 8.9783,-16.00031 12.9347,-34.47023 13.1852,-52.71334 0.2034,-14.81509 -4.4753,-30.45053 -15.7667,-40.57568 -4.9894,-4.42048 -11.4334,-7.82617 -18.2935,-7.07245 -6.3176,0.48747 -12.5963,1.55156 -18.9549,1.25263 -16.1626,0.42006 -32.3626,0.61903 -48.4786,-0.90601 -32.6092,-2.3188 -64.9045,-8.72091 -95.9583,-18.93094 -19.4899,-5.90919 -38.8943,-12.22597 -57.9926,-19.33547 -19.0982,-7.1095 -37.8904,-15.01172 -56.15572,-24.0918 C 990.87593,744.84316 983,743 983,743 z m 237.0938,219 c -9.3894,5.40636 -18.0047,12.57007 -28.6625,15.39973 -17.7969,7.01686 -36.5513,11.54496 -55.6026,13.31124 -20.4074,2.27601 -41.0781,1.06911 -61.2668,-2.49094 -11.8584,-1.95894 -29.2759,-6.49999 -43.7289,-10.55132 -14.4529,-4.05132 -25.9413,-7.61291 -25.9413,-7.61291 0,0 3.5481,9.34614 5.853,13.64945 6.9344,15.72196 19.4896,27.47125 30.3997,38.67845 9.1883,9.0152 19.794,16.5257 31.3427,22.2098 31.3843,16.2483 67.4021,22.7209 102.5479,20.508 11.5197,-0.8873 23.1126,-2.7963 34.2447,-6.1129 11.1322,-3.3166 21.8035,-8.0409 31.4801,-14.5591 12.943,-9.1526 22.6377,-24.0782 22.4789,-40.2966 0.4038,-10.90985 -0.8995,-22.98369 -8.7406,-31.28993 C 1245.8842,963.4963 1232.2336,961.149 1220.0938,962 Z"
         sodipodi:nodetypes="ccccccscccccsccccccscccccscccc" />
    </clipPath>
    <clipPath
       clipPathUnits="userSpaceOnUse"
       id="clipPath3992">
      <path
         style="fill:#ad7fa8;fill-opacity:1;display:inline"
         d="m 2215.1562,500 c 22.8595,24.55673 42.7378,51.886 59.0602,81.1976 43.9799,78.97876 61.2121,173.75167 41.5091,261.97677 -18.5385,83.01071 -70.3755,158.73273 -142.8975,203.17383 -67.3402,41.2657 -152.814,54.3956 -227.5523,28.8664 -50.053,-17.0972 -93.8823,-50.6566 -125.8589,-92.78857 -30.3199,-39.94903 -49.9819,-86.73299 -71.992,-131.79708 -22.0102,-45.0641 -47.5282,-89.94838 -86.2144,-121.86389 -46.9916,-38.76738 -109.9355,-54.72691 -170.8254,-52.84395 -55.4533,1.71484 -110.0759,17.33593 -159.5859,42.3713 -49.713,25.13804 -94.5466,59.76266 -131.8866,101.10311 -49.8771,55.22076 -86.0722,121.92741 -110.838,192.09658 -39.7732,112.6897 -50.5591,234.136 -43.9079,353.4534 3.3248,59.645 11.0075,119.447 29.4591,176.2635 18.4434,56.791 47.4777,109.8868 83.1845,157.745 102.5185,137.4067 261.0574,230.0836 430.0386,258.9972 81.956,14.0231 165.9849,13.7143 248.5461,3.8619 101.1093,-12.0659 201.1154,-38.6697 291.6389,-85.2979 159.8359,-82.3306 284.2858,-225.2665 360.4957,-388.1097 79.3638,-169.5824 108.535,-364.6817 67.9721,-547.46972 C 2527.8825,816.47613 2467.465,698.06995 2375.7825,609.4848 2328.9588,564.24294 2274.3838,527.04401 2215.1562,500 Z"
         id="path3994"
         inkscape:connector-curvature="0"
         sodipodi:nodetypes="cssssssssssssssssssac"
         inkscape:path-effect="#path-effect3996"
         inkscape:original-d="m 2215.1562,500 c 0,0 43.8216,50.95264 59.0602,81.1976 40.3788,80.14209 59.6801,173.63623 41.5091,261.97677 -17.1001,83.13444 -71.3383,157.71983 -142.8975,203.17383 -66.6713,42.3492 -152.1447,54.631 -227.5523,28.8664 -50.2497,-17.1689 -95.3534,-48.9167 -125.8589,-92.78857 -57.0001,-81.97538 -86.5,-181.96085 -158.2064,-253.66097 -44.1544,-44.15054 -109.862,-58.86085 -170.8254,-52.84395 -55.0195,5.43025 -110.1476,16.48579 -159.5859,42.3713 -49.4356,25.8841 -95.8896,58.17257 -131.8866,101.10311 -47.7546,56.95279 -84.7015,122.78379 -110.838,192.09658 -42.384,112.4002 -45.0896,234.6887 -43.9079,353.4534 0.593,59.5956 10.8935,119.4674 29.4591,176.2635 18.5655,56.7961 46.6705,110.0519 83.1845,157.745 104.3387,136.2829 261.3488,229.3059 430.0386,258.9972 82.0316,14.4385 165.9054,13.242 248.5461,3.8619 101.1922,-11.4857 202.7599,-34.5403 291.6389,-85.2979 159.831,-91.2772 281.6824,-229.7218 360.4957,-388.1097 83.3243,-167.4536 110.8416,-364.2602 67.9721,-547.46972 C 2526.5162,817.06225 2460.0323,702.74456 2375.7825,609.4848 2332.3457,561.40275 2215.1562,500 2215.1562,500 Z" />
    </clipPath>
    <clipPath
       clipPathUnits="userSpaceOnUse"
       id="clipPath4045">
      <path
         style="fill:#4baff8;fill-opacity:1;display:inline"
         d="m 2215.1562,500 c 22.8595,24.55673 42.7378,51.886 59.0602,81.1976 43.9799,78.97876 61.2121,173.75167 41.5091,261.97677 -18.5385,83.01071 -70.3755,158.73273 -142.8975,203.17383 -67.3402,41.2657 -152.814,54.3956 -227.5523,28.8664 -50.053,-17.0972 -93.8823,-50.6566 -125.8589,-92.78857 -30.3199,-39.94903 -49.9819,-86.73299 -71.992,-131.79708 -22.0102,-45.0641 -47.5282,-89.94838 -86.2144,-121.86389 -46.9916,-38.76738 -109.9355,-54.72691 -170.8254,-52.84395 -55.4533,1.71484 -110.0759,17.33593 -159.5859,42.3713 -49.713,25.13804 -94.5466,59.76266 -131.8866,101.10311 -49.8771,55.22076 -86.0722,121.92741 -110.838,192.09658 -39.7732,112.6897 -50.5591,234.136 -43.9079,353.4534 3.3248,59.645 11.0075,119.447 29.4591,176.2635 18.4434,56.791 47.4777,109.8868 83.1845,157.745 102.5185,137.4067 261.0574,230.0836 430.0386,258.9972 81.956,14.0231 165.9849,13.7143 248.5461,3.8619 101.1093,-12.0659 201.1154,-38.6697 291.6389,-85.2979 159.8359,-82.3306 284.2858,-225.2665 360.4957,-388.1097 79.3638,-169.5824 108.535,-364.6817 67.9721,-547.46972 C 2527.8825,816.47613 2467.465,698.06995 2375.7825,609.4848 2328.9588,564.24294 2274.3838,527.04401 2215.1562,500 Z"
         id="path4047"
         inkscape:connector-curvature="0"
         sodipodi:nodetypes="cssssssssssssssssssac"
         inkscape:path-effect="#path-effect4049"
         inkscape:original-d="m 2215.1562,500 c 0,0 43.8216,50.95264 59.0602,81.1976 40.3788,80.14209 59.6801,173.63623 41.5091,261.97677 -17.1001,83.13444 -71.3383,157.71983 -142.8975,203.17383 -66.6713,42.3492 -152.1447,54.631 -227.5523,28.8664 -50.2497,-17.1689 -95.3534,-48.9167 -125.8589,-92.78857 -57.0001,-81.97538 -86.5,-181.96085 -158.2064,-253.66097 -44.1544,-44.15054 -109.862,-58.86085 -170.8254,-52.84395 -55.0195,5.43025 -110.1476,16.48579 -159.5859,42.3713 -49.4356,25.8841 -95.8896,58.17257 -131.8866,101.10311 -47.7546,56.95279 -84.7015,122.78379 -110.838,192.09658 -42.384,112.4002 -45.0896,234.6887 -43.9079,353.4534 0.593,59.5956 10.8935,119.4674 29.4591,176.2635 18.5655,56.7961 46.6705,110.0519 83.1845,157.745 104.3387,136.2829 261.3488,229.3059 430.0386,258.9972 82.0316,14.4385 165.9054,13.242 248.5461,3.8619 101.1922,-11.4857 202.7599,-34.5403 291.6389,-85.2979 159.831,-91.2772 281.6824,-229.7218 360.4957,-388.1097 83.3243,-167.4536 110.8416,-364.2602 67.9721,-547.46972 C 2526.5162,817.06225 2460.0323,702.74456 2375.7825,609.4848 2332.3457,561.40275 2215.1562,500 2215.1562,500 Z" />
    </clipPath>
    <inkscape:path-effect
       effect="spiro"
       id="path-effect4004-6"
       is_visible="true" />
    <clipPath
       clipPathUnits="userSpaceOnUse"
       id="clipPath4045-8">
      <path
         style="fill:#4baff8;fill-opacity:1;display:inline"
         d="m 2215.1562,500 c 22.8595,24.55673 42.7378,51.886 59.0602,81.1976 43.9799,78.97876 61.2121,173.75167 41.5091,261.97677 -18.5385,83.01071 -70.3755,158.73273 -142.8975,203.17383 -67.3402,41.2657 -152.814,54.3956 -227.5523,28.8664 -50.053,-17.0972 -93.8823,-50.6566 -125.8589,-92.78857 -30.3199,-39.94903 -49.9819,-86.73299 -71.992,-131.79708 -22.0102,-45.0641 -47.5282,-89.94838 -86.2144,-121.86389 -46.9916,-38.76738 -109.9355,-54.72691 -170.8254,-52.84395 -55.4533,1.71484 -110.0759,17.33593 -159.5859,42.3713 -49.713,25.13804 -94.5466,59.76266 -131.8866,101.10311 -49.8771,55.22076 -86.0722,121.92741 -110.838,192.09658 -39.7732,112.6897 -50.5591,234.136 -43.9079,353.4534 3.3248,59.645 11.0075,119.447 29.4591,176.2635 18.4434,56.791 47.4777,109.8868 83.1845,157.745 102.5185,137.4067 261.0574,230.0836 430.0386,258.9972 81.956,14.0231 165.9849,13.7143 248.5461,3.8619 101.1093,-12.0659 201.1154,-38.6697 291.6389,-85.2979 159.8359,-82.3306 284.2858,-225.2665 360.4957,-388.1097 79.3638,-169.5824 108.535,-364.6817 67.9721,-547.46972 C 2527.8825,816.47613 2467.465,698.06995 2375.7825,609.4848 2328.9588,564.24294 2274.3838,527.04401 2215.1562,500 Z"
         id="path4047-4"
         inkscape:connector-curvature="0"
         sodipodi:nodetypes="cssssssssssssssssssac"
         inkscape:original-d="m 2215.1562,500 c 0,0 43.8216,50.95264 59.0602,81.1976 40.3788,80.14209 59.6801,173.63623 41.5091,261.97677 -17.1001,83.13444 -71.3383,157.71983 -142.8975,203.17383 -66.6713,42.3492 -152.1447,54.631 -227.5523,28.8664 -50.2497,-17.1689 -95.3534,-48.9167 -125.8589,-92.78857 -57.0001,-81.97538 -86.5,-181.96085 -158.2064,-253.66097 -44.1544,-44.15054 -109.862,-58.86085 -170.8254,-52.84395 -55.0195,5.43025 -110.1476,16.48579 -159.5859,42.3713 -49.4356,25.8841 -95.8896,58.17257 -131.8866,101.10311 -47.7546,56.95279 -84.7015,122.78379 -110.838,192.09658 -42.384,112.4002 -45.0896,234.6887 -43.9079,353.4534 0.593,59.5956 10.8935,119.4674 29.4591,176.2635 18.5655,56.7961 46.6705,110.0519 83.1845,157.745 104.3387,136.2829 261.3488,229.3059 430.0386,258.9972 82.0316,14.4385 165.9054,13.242 248.5461,3.8619 101.1922,-11.4857 202.7599,-34.5403 291.6389,-85.2979 159.831,-91.2772 281.6824,-229.7218 360.4957,-388.1097 83.3243,-167.4536 110.8416,-364.2602 67.9721,-547.46972 C 2526.5162,817.06225 2460.0323,702.74456 2375.7825,609.4848 2332.3457,561.40275 2215.1562,500 2215.1562,500 Z" />
    </clipPath>
    <clipPath
       clipPathUnits="userSpaceOnUse"
       id="clipPath4078">
      <path
         transform="translate(-1.5156413e-5,1.8777113e-5)"
         inkscape:original-d="m 1363.3125,1277.25 c -26.5551,0.016 -53.1641,2.0072 -78.853,8.891 -8.1144,2.1744 -18.7064,5.5253 -24.8374,7.5802 -22.5882,7.5707 -44.4992,18.2112 -64.2159,31.6221 -8.4137,5.7228 -21.0836,15.4173 -29.8301,24.2626 -21.7586,22.0045 -39.5587,48.7636 -45.7582,79.4782 -7.0228,34.7932 -3.4253,70.6575 2.2552,105.2742 14.6012,88.9786 60.0182,171.6651 123.9768,234.9801 66.1175,65.4521 148.3109,112.6487 234.2322,146.7932 114.463,45.4868 240.3953,57.9905 362.5546,44.9183 82.1542,-8.7913 180.9554,-18.3561 256.1816,-53.3621 44.3436,-20.635 128.375,-72.7717 189.8073,-120.628 55.9077,-43.5528 91.5522,-84.0757 91.5522,-84.0757 0,0 -83.6597,33.065 -89.3174,35.0181 -24.2837,8.3831 -48.9532,16.0113 -74.0974,21.121 -14.6754,2.9823 -27.8461,6.17 -42.3688,8.2513 -52.5402,7.5299 -105.9522,11.3493 -158.6876,5.375 -10.7793,-1.2212 -25.6573,-4.2045 -38.0473,-6.8848 -80.9417,-17.5099 -155.4425,-66.6629 -199.5836,-137.4675 -28.5621,-45.815 -56.9921,-91.7404 -88.5083,-135.6411 -48.8195,-68.0036 -103.9718,-134.8538 -177.8098,-176.5629 C 1466.9044,1290.7439 1415.1995,1277.2188 1363.3125,1277.25 Z"
         inkscape:path-effect="#path-effect4004-6"
         style="color:#000000;color-interpolation:sRGB;color-interpolation-filters:linearRGB;fill:#75507b;fill-opacity:1;fill-rule:nonzero;stroke:none;stroke-width:3;marker:none;visibility:visible;display:inline;overflow:visible;enable-background:accumulate;clip-rule:nonzero"
         d="m 1363.3125,1277.25 c -26.527,-0.5097 -53.1564,2.2858 -78.853,8.891 -8.3862,2.1556 -16.6669,4.7136 -24.8374,7.5802 -22.5762,7.9207 -44.3813,18.2426 -64.2159,31.6221 -10.6412,7.178 -20.7078,15.2326 -29.8301,24.2626 -22.0018,21.7793 -38.3783,49.4123 -45.7582,79.4782 -8.4388,34.3798 -5.0462,70.635 2.2552,105.2742 18.4999,87.7666 62.1893,169.9606 123.9768,234.9801 64.0679,67.4191 146.5204,115.8632 234.2322,146.7932 115.6008,40.7646 240.1741,51.8701 362.5546,44.9183 87.5185,-4.9715 175.4234,-19.2694 256.1816,-53.3621 69.3159,-29.2622 131.9654,-72.5106 189.8073,-120.628 31.8655,-26.5082 62.4317,-54.5783 91.5522,-84.0757 -29.1728,13.1312 -58.9935,24.8228 -89.3174,35.0181 -24.3541,8.1882 -49.0453,15.4148 -74.0974,21.121 -14.0311,3.1959 -28.1695,5.9136 -42.3688,8.2513 -52.407,8.628 -105.9972,12.0578 -158.6876,5.375 -12.7927,-1.6225 -25.517,-3.839 -38.0473,-6.8848 -79.9993,-19.4456 -149.0885,-72.4424 -199.5836,-137.4675 -33.1276,-42.66 -58.9826,-90.4134 -88.5083,-135.6411 -46.1529,-70.6973 -103.2866,-136.8831 -177.8098,-176.5629 C 1466.3274,1291.8974 1414.9982,1278.2431 1363.3125,1277.25 Z"
         id="path4080"
         inkscape:connector-curvature="0"
         sodipodi:nodetypes="sssssssssssscsssssssss"
         clip-path="url(#clipPath4045-8)" />
    </clipPath>
    <clipPath
       clipPathUnits="userSpaceOnUse"
       id="clipPath4082">
      <path
         transform="translate(-1.5156413e-5,1.8777113e-5)"
         inkscape:original-d="m 1363.3125,1277.25 c -26.5551,0.016 -53.1641,2.0072 -78.853,8.891 -8.1144,2.1744 -18.7064,5.5253 -24.8374,7.5802 -22.5882,7.5707 -44.4992,18.2112 -64.2159,31.6221 -8.4137,5.7228 -21.0836,15.4173 -29.8301,24.2626 -21.7586,22.0045 -39.5587,48.7636 -45.7582,79.4782 -7.0228,34.7932 -3.4253,70.6575 2.2552,105.2742 14.6012,88.9786 60.0182,171.6651 123.9768,234.9801 66.1175,65.4521 148.3109,112.6487 234.2322,146.7932 114.463,45.4868 240.3953,57.9905 362.5546,44.9183 82.1542,-8.7913 180.9554,-18.3561 256.1816,-53.3621 44.3436,-20.635 128.375,-72.7717 189.8073,-120.628 55.9077,-43.5528 91.5522,-84.0757 91.5522,-84.0757 0,0 -83.6597,33.065 -89.3174,35.0181 -24.2837,8.3831 -48.9532,16.0113 -74.0974,21.121 -14.6754,2.9823 -27.8461,6.17 -42.3688,8.2513 -52.5402,7.5299 -105.9522,11.3493 -158.6876,5.375 -10.7793,-1.2212 -25.6573,-4.2045 -38.0473,-6.8848 -80.9417,-17.5099 -155.4425,-66.6629 -199.5836,-137.4675 -28.5621,-45.815 -56.9921,-91.7404 -88.5083,-135.6411 -48.8195,-68.0036 -103.9718,-134.8538 -177.8098,-176.5629 C 1466.9044,1290.7439 1415.1995,1277.2188 1363.3125,1277.25 Z"
         inkscape:path-effect="#path-effect4004-6"
         style="color:#000000;color-interpolation:sRGB;color-interpolation-filters:linearRGB;fill:#75507b;fill-opacity:1;fill-rule:nonzero;stroke:none;stroke-width:3;marker:none;visibility:visible;display:inline;overflow:visible;enable-background:accumulate;clip-rule:nonzero"
         d="m 1363.3125,1277.25 c -26.527,-0.5097 -53.1564,2.2858 -78.853,8.891 -8.3862,2.1556 -16.6669,4.7136 -24.8374,7.5802 -22.5762,7.9207 -44.3813,18.2426 -64.2159,31.6221 -10.6412,7.178 -20.7078,15.2326 -29.8301,24.2626 -22.0018,21.7793 -38.3783,49.4123 -45.7582,79.4782 -8.4388,34.3798 -5.0462,70.635 2.2552,105.2742 18.4999,87.7666 62.1893,169.9606 123.9768,234.9801 64.0679,67.4191 146.5204,115.8632 234.2322,146.7932 115.6008,40.7646 240.1741,51.8701 362.5546,44.9183 87.5185,-4.9715 175.4234,-19.2694 256.1816,-53.3621 69.3159,-29.2622 131.9654,-72.5106 189.8073,-120.628 31.8655,-26.5082 62.4317,-54.5783 91.5522,-84.0757 -29.1728,13.1312 -58.9935,24.8228 -89.3174,35.0181 -24.3541,8.1882 -49.0453,15.4148 -74.0974,21.121 -14.0311,3.1959 -28.1695,5.9136 -42.3688,8.2513 -52.407,8.628 -105.9972,12.0578 -158.6876,5.375 -12.7927,-1.6225 -25.517,-3.839 -38.0473,-6.8848 -79.9993,-19.4456 -149.0885,-72.4424 -199.5836,-137.4675 -33.1276,-42.66 -58.9826,-90.4134 -88.5083,-135.6411 -46.1529,-70.6973 -103.2866,-136.8831 -177.8098,-176.5629 C 1466.3274,1291.8974 1414.9982,1278.2431 1363.3125,1277.25 Z"
         id="path4084"
         inkscape:connector-curvature="0"
         sodipodi:nodetypes="sssssssssssscsssssssss"
         clip-path="url(#clipPath4045-8)" />
    </clipPath>
    <clipPath
       clipPathUnits="userSpaceOnUse"
       id="clipPath4111">
      <path
         style="fill:#ad7fa8;fill-opacity:1;display:inline"
         d="m 2215.1562,500 c 22.8595,24.55673 42.7378,51.886 59.0602,81.1976 43.9799,78.97876 61.2121,173.75167 41.5091,261.97677 -18.5385,83.01071 -70.3755,158.73273 -142.8975,203.17383 -67.3402,41.2657 -152.814,54.3956 -227.5523,28.8664 -50.053,-17.0972 -93.8823,-50.6566 -125.8589,-92.78857 -30.3199,-39.94903 -49.9819,-86.73299 -71.992,-131.79708 -22.0102,-45.0641 -47.5282,-89.94838 -86.2144,-121.86389 -46.9916,-38.76738 -109.9355,-54.72691 -170.8254,-52.84395 -55.4533,1.71484 -110.0759,17.33593 -159.5859,42.3713 -49.713,25.13804 -94.5466,59.76266 -131.8866,101.10311 -49.8771,55.22076 -86.0722,121.92741 -110.838,192.09658 -39.7732,112.6897 -50.5591,234.136 -43.9079,353.4534 3.3248,59.645 11.0075,119.447 29.4591,176.2635 18.4434,56.791 47.4777,109.8868 83.1845,157.745 102.5185,137.4067 261.0574,230.0836 430.0386,258.9972 81.956,14.0231 165.9849,13.7143 248.5461,3.8619 101.1093,-12.0659 201.1154,-38.6697 291.6389,-85.2979 159.8359,-82.3306 284.2858,-225.2665 360.4957,-388.1097 79.3638,-169.5824 108.535,-364.6817 67.9721,-547.46972 C 2527.8825,816.47613 2467.465,698.06995 2375.7825,609.4848 2328.9588,564.24294 2274.3838,527.04401 2215.1562,500 Z"
         id="path4113"
         inkscape:connector-curvature="0"
         sodipodi:nodetypes="cssssssssssssssssssac"
         inkscape:path-effect="#path-effect4115"
         inkscape:original-d="m 2215.1562,500 c 0,0 43.8216,50.95264 59.0602,81.1976 40.3788,80.14209 59.6801,173.63623 41.5091,261.97677 -17.1001,83.13444 -71.3383,157.71983 -142.8975,203.17383 -66.6713,42.3492 -152.1447,54.631 -227.5523,28.8664 -50.2497,-17.1689 -95.3534,-48.9167 -125.8589,-92.78857 -57.0001,-81.97538 -86.5,-181.96085 -158.2064,-253.66097 -44.1544,-44.15054 -109.862,-58.86085 -170.8254,-52.84395 -55.0195,5.43025 -110.1476,16.48579 -159.5859,42.3713 -49.4356,25.8841 -95.8896,58.17257 -131.8866,101.10311 -47.7546,56.95279 -84.7015,122.78379 -110.838,192.09658 -42.384,112.4002 -45.0896,234.6887 -43.9079,353.4534 0.593,59.5956 10.8935,119.4674 29.4591,176.2635 18.5655,56.7961 46.6705,110.0519 83.1845,157.745 104.3387,136.2829 261.3488,229.3059 430.0386,258.9972 82.0316,14.4385 165.9054,13.242 248.5461,3.8619 101.1922,-11.4857 202.7599,-34.5403 291.6389,-85.2979 159.831,-91.2772 281.6824,-229.7218 360.4957,-388.1097 83.3243,-167.4536 110.8416,-364.2602 67.9721,-547.46972 C 2526.5162,817.06225 2460.0323,702.74456 2375.7825,609.4848 2332.3457,561.40275 2215.1562,500 2215.1562,500 Z" />
    </clipPath>
    <radialGradient
       inkscape:collect="always"
       xlink:href="#linearGradient1215"
       id="radialGradient1221"
       cx="1709.9402"
       cy="1588.6051"
       fx="1709.9402"
       fy="1588.6051"
       r="1130.6875"
       gradientTransform="matrix(-0.85170213,-8.0931252e-8,3.9492481e-8,-0.41560991,3157.2587,2653.9722)"
       gradientUnits="userSpaceOnUse" />
  </defs>
  <sodipodi:namedview
     id="base"
     pagecolor="#ffffff"
     bordercolor="#666666"
     borderopacity="0.59607843"
     inkscape:pageopacity="0.0"
     inkscape:pageshadow="2"
     inkscape:zoom="1"
     inkscape:cx="286.03681"
     inkscape:cy="302.02446"
     inkscape:document-units="px"
     inkscape:current-layer="layer4"
     showgrid="false"
     fit-margin-top="0"
     fit-margin-left="0"
     fit-margin-right="0"
     fit-margin-bottom="0"
     showguides="false"
     inkscape:showpageshadow="false"
     showborder="true" />
  <metadata
     id="metadata7">
    <rdf:RDF>
      <cc:Work
         rdf:about="">
        <dc:format>image/svg+xml</dc:format>
        <dc:type
           rdf:resource="http://purl.org/dc/dcmitype/StillImage" />
        <dc:title></dc:title>
      </cc:Work>
    </rdf:RDF>
  </metadata>
  <g
     inkscape:groupmode="layer"
     id="layer4"
     inkscape:label="svg"
     style="display:inline"
     transform="translate(967.70984,-921.81165)">
    <g
       style="stroke:none"
       transform="matrix(0.21469656,0,0,0.21469656,-1080.6656,885.76689)"
       id="g926">
      <path
         sodipodi:nodetypes="sscsscsscssssssssssscssscsscss"
         style="fill:#ffd006;fill-opacity:1;stroke:none"
         d="m 1685.5,2536.3886 c -233.5599,-4.6155 -443.6999,-45.0869 -609.5836,-117.4011 -20.2838,-8.8424 -64.9164,-30.9459 -64.9164,-32.1487 0,-2.7324 57.8506,-78.878 89.6328,-117.9789 146.5995,-180.3576 303.1924,-328.6116 554.8672,-525.3192 40.7601,-31.8579 48.0646,-37.7652 42.5,-34.3706 -3.9528,2.4112 -78.6101,49.3335 -110,69.1351 -272.757,172.063 -416.3022,282.0246 -579.6464,444.0323 -13.63257,13.521 -25.23363,25.3074 -25.23363,25.3074 0,0 -12.03148,-6.6116 -22.26673,-11.886 -160.51095,-82.7136 -301.06163,-189.6631 -380.81743,-289.7749 -10.06433,-12.6331 -11.10451,-10.4998 10.21419,-20.9475 97.72622,-47.893 328.05415,-113.1643 529.3132,-149.9991 96.5277,-17.6667 248.4232,-32.1031 467.9368,-44.4736 42,-2.3669 42,-2.3669 59.5,-10.9227 48.7117,-23.8155 72.1595,-23.464 123,1.8434 10.5,5.2267 10.5,5.2267 40.816,5.8848 389.0778,8.4458 737.1397,73.4555 1019.684,190.4526 21.0826,8.73 19.9294,5.8507 8.8256,22.0349 -74.7413,108.9372 -183.2157,203.2878 -320.3256,278.6178 -19.043,10.4624 -76.8482,39.5259 -78.6124,39.5249 -0.4882,-3e-4 -14.1626,-13.1085 -30.3876,-29.1295 -99.7969,-98.5419 -187.4153,-174.093 -294.204,-253.6846 -88.5466,-65.9954 -162.413,-115.1994 -349.296,-232.6733 -26.95,-16.9406 -50.0125,-31.4629 -51.25,-32.2716 -7.6986,-5.0314 2.1513,3.0791 34.5,28.4076 298.5145,233.7324 475.6099,408.3481 635.2467,626.3519 7.8536,10.725 14.6699,19.9994 15.1473,20.6098 1.0068,1.287 -26.7664,15.7386 -53.644,27.9132 C 2162.8567,2496.7067 1924.016,2541.1021 1685.5,2536.3886 Z"
         id="path1144"
         inkscape:connector-curvature="0" />
      <path
         sodipodi:nodetypes="ccccccccccccccccccccccccscccccccccccccc"
         inkscape:connector-curvature="0"
         id="path1142"
         d="m 1685.5,2536.39 c -210.0162,-4.9652 -422.7807,-35.6193 -616.3949,-120.5312 -19.123,-9.4563 -39.8572,-18.9305 -58.0278,-28.863 85.0171,-106.3648 198.2383,-216.2673 290.3481,-286.6621 55.2285,-40.7128 112.5247,-78.6747 170.7399,-114.9326 34.0559,-19.242 70.0969,-34.5698 105.668,-50.7194 24.0563,-15.9781 6.2816,-62.0147 -22.9545,-52.3526 -20.2044,8.9524 -53.8834,-6.5124 -30.1692,-27.8117 16.2758,-19.4165 36.1479,-36.1492 56.5522,-50.7309 25.7288,-7.4633 42.977,25.2781 68.7306,18.3651 63.4221,6.4314 126.9051,-2.4707 190.1424,-6.813 26.4173,9.2621 42.3772,34.3307 66.3813,47.5384 16.4398,27.5313 -33.6503,13.0903 -34.7108,36.5881 -6.5889,24.3318 12.2051,45.3057 32.4787,55.5816 75.0077,45.9655 144.7663,99.9378 213.3378,154.907 91.1463,82.9064 212.3362,206.993 273.9783,281.0026 0,0 -15.0799,8.5901 -22.8957,12.0524 -198.4055,93.9323 -419.4496,130.9394 -637.6936,133.6848 C 1715.84,2536.7907 1700.6681,2536.69 1685.5,2536.39 z m 724,-308.0809 c -147.2703,-147.0538 -312.5134,-275.4763 -487.895,-387.2463 -7.3874,-7.7681 -47.8264,-22.2805 -23.6021,-29.644 28.4596,-2.81 57.0719,1.3842 85.588,-0.7105 140.111,-0.6936 281.0954,-1.8423 419.765,21.2265 108.631,16.6939 215.4949,42.976 322.7608,66.8847 42.8597,9.5531 109.426,29.3751 121.1783,28.4745 -2.3026,8.8517 -31.71,44.5062 -36.9013,51.6702 -95.4721,121.46 -230.0826,214.2148 -368.6882,279.8843 C 2441.7055,2258.8485 2417.6807,2234.1589 2409.5,2228.3091 Z M 961,2235.8495 c -142.57731,-74.7519 -279.22653,-167.1148 -382.90368,-291.8116 -2.15714,-2.8675 -5.35673,-6.2562 -5.22845,-7.981 93.7581,-31.0092 206.58212,-55.2384 293.44227,-70.114 114.95585,-23.2874 231.54316,-37.1697 348.42216,-46.1597 112.104,-9.3148 224.4311,-15.9082 336.8463,-19.9891 -92.61,62.4155 -187.3219,121.9101 -275.7258,190.3339 -100.4371,76.0533 -191.6582,148.8683 -279.77519,238.9683 l -16.32544,16.7286 C 979.75217,2245.8249 967.05114,2238.1596 961,2235.8495 Z"
         style="fill:url(#radialGradient1221);fill-opacity:1;stroke:none" />
      <path
         inkscape:connector-curvature="0"
         id="path4154"
         d="m 1639.7692,2314.388 -0.5195,-0.888 16.3388,-129.5 c 8.9864,-71.225 16.3553,-129.8375 16.3752,-130.25 l 0.036,-0.75 30.75,0 30.75,0 5.8745,30.7457 c 23.972,125.4642 39.991,212.1655 41.176,222.8623 l 0.6777,6.1167 -5.8641,0.6405 -5.8641,0.6405 -64.6057,0.6308 -64.6057,0.6309 L 1639.7692,2314.388 Z M 942.8543,1986.3208 C 926.30663,1974.9837 892,1947.7323 892,1945.9247 l 0,-0.9065 9.75,-4.8817 c 60.30384,-30.1935 160.7908,-69.7559 204.9608,-80.6944 l 11.2107,-2.7763 3.7893,1.4964 c 4.5493,1.7965 22.2958,12.671 22.2733,13.6484 -0.01,0.3792 -7.0762,4.2894 -15.7055,8.6894 -50.0359,25.5127 -103.9222,57.6912 -154.7786,92.4269 -12.65,8.6401 -23.51557,16.0137 -24.1457,16.3858 l -1.1457,0.6764 L 942.8543,1986.3208 z m 1511.6895,2.7501 c -0.816,-1.3204 -63.407,-43.0437 -79.395,-52.9249 -29.241,-18.072 -71.5649,-41.9274 -101.3875,-57.146 -7.0057,-3.575 -12.7429,-6.7942 -12.7494,-7.1537 -0.018,-0.9733 15.5022,-10.7438 20.7609,-13.07 l 4.5645,-2.0191 5.5813,1.2107 c 40.9632,8.8857 130.9526,43.6721 205.7575,79.5379 l 15.6891,7.5222 -3.4326,3.5958 C 2501.985,1956.9493 2458.8093,1990 2455.881,1990 2455.4613,1990 2454.8596,1989.5819 2454.5438,1989.0709 Z"
         style="fill:#ffffff;fill-opacity:1;stroke:none;display:inline" />
    </g>
    <g
       style="stroke:none"
       transform="matrix(0.24638298,0,0,0.24638272,-1119.3962,822.17633)"
       id="g4354">
      <g
         style="stroke:none"
         id="g3658">
        <path
           inkscape:connector-curvature="0"
           id="path1066"
           d="m 1445,1899.9274 c -41.4317,-2.6786 -82.0789,-12.9488 -121.2936,-26.5859 -91.6911,-31.886 -176.0292,-82.0392 -255.4985,-137.794 C 999.93704,1687.6494 934.30966,1634.963 880.20249,1571.5 764.6207,1435.9327 707.47104,1253.8999 716.91883,1076 c 4.23325,-79.71123 22.78541,-161.97867 73.47309,-223.64357 7.31406,-8.89803 15.23984,-17.29314 23.70287,-25.10643 -2.88193,13.69686 -5.04028,27.54594 -6.46303,41.47021 -5.15647,50.46562 -0.49086,102.13809 15.69136,150.21619 9.0204,26.8 21.69536,52.5977 39.50288,74.5636 25.25394,31.1512 60.33454,53.7131 98.36026,66.449 38.02572,12.7359 78.90084,15.9085 118.81374,12.02 11.6423,-1.1343 23.2205,-2.8575 34.8585,-4.0344 56.8461,-5.7488 115.1604,1.8229 168.1415,23.2128 73.5175,29.6811 134.6143,84.7976 182.5476,147.9497 47.9334,63.1521 83.7991,134.4835 118.3759,205.8294 24.2821,50.1038 48.3939,101.5176 55.4081,156.7518 3.5071,27.6171 2.5959,55.9838 -4.6989,82.85 -7.2948,26.8661 -21.1527,52.1942 -41.301,71.4049 -19.211,18.317 -43.6623,30.659 -69.3189,37.4642 C 1498.3562,1900.2026 1471.4885,1901.6399 1445,1899.9274 Z"
           style="fill:#3883a9;fill-opacity:1;stroke:none"
           sodipodi:nodetypes="sssccscsssssssss"
           inkscape:path-effect="#path-effect3628"
           inkscape:original-d="m 1445,1899.9274 c -47.0433,-2.9331 -76.4569,-9.3802 -121.2936,-26.5859 -81.0624,-31.107 -173.9049,-82.2627 -255.4985,-137.794 C 986.61426,1680.0162 916.26953,1620.1094 880.20249,1571.5 776.24459,1422.4721 709.5289,1247.8205 716.91883,1076 722.06916,975.54319 740.89605,918.23631 790.39192,852.35643 805.2724,832.55025 814.09479,827.25 814.09479,827.25 c 0,0 -2.64439,19.13988 -6.46303,41.47021 -9.23035,53.97657 -1.16907,104.0742 15.69136,150.21619 10.64926,29.1439 24.6277,55.9441 39.50288,74.5636 44.56243,55.7795 134.02659,88.1045 217.174,78.469 9.625,-1.1154 25.3113,-2.9308 34.8585,-4.0344 63.5424,-7.3447 99.7058,-2.3522 168.1415,23.2128 139.0951,51.9607 240.5412,171.2252 300.9235,353.7791 35.3908,106.9968 39.6557,247.9829 9.4082,311.0067 C 1577.4269,1889.0726 1524.183,1904.8644 1445,1899.9274 Z" />
        <path
           style="fill:#2d5f7c;fill-opacity:1;stroke:none"
           d="m 1444.5,1899.9043 c -72.8789,-4.9797 -142.3359,-32.5673 -207.7556,-65.0697 -17.3018,-8.596 -34.4695,-17.5876 -50.4098,-28.5031 -37.9819,-26.0088 -67.8356,-62.1054 -95.2903,-99.0557 -45.3893,-61.0878 -85.9152,-126.2946 -114.3462,-196.8891 -25.82482,-64.1233 -41.43904,-132.2865 -46.84006,-201.2034 -2.06282,-26.3216 -2.64717,-52.7661 -1.50796,-79.1438 3.77549,-87.4191 26.78883,-174.0599 67.74937,-251.3812 50.40255,-95.14502 128.01425,-175.62339 221.08185,-229.76605 93.0675,-54.14267 201.2819,-81.82333 308.9252,-79.39371 107.6434,2.42963 214.4032,34.91744 305.3547,92.54394 90.9515,57.6265 165.8671,140.19549 214.7377,236.1364 48.8706,95.94092 71.6065,204.98332 65.5249,312.48222 -6.0817,107.4989 -40.9242,213.1903 -99.6489,303.4367 -58.7247,90.2464 -141.16,164.8583 -236.6221,214.6577 -95.4622,49.7993 -203.7216,74.7107 -311.3588,72.0209 C 1457.5577,1900.6131 1451.0231,1900.35 1444.5,1899.9043 Z"
           id="path1064"
           inkscape:connector-curvature="0"
           sodipodi:nodetypes="ssssssssss"
           inkscape:path-effect="#path-effect3604"
           inkscape:original-d="m 1444.5,1899.9043 c -73.3479,-3.6517 -143.3043,-31.1455 -207.7556,-65.0697 -17.0729,-8.9864 -34.9356,-16.9995 -50.4098,-28.5031 -36.9248,-27.45 -67.0227,-63.007 -95.2903,-99.0557 -46.8797,-59.7839 -88.8516,-124.6999 -114.3462,-196.8891 -22.93944,-64.9542 -45.7901,-131.557 -46.84006,-201.2034 -0.39757,-26.3717 -4.11676,-52.853 -1.50796,-79.1438 4.85622,-48.9396 41.17616,-246.73324 67.74937,-251.3812 C 1795.7177,838.79597 2487.1375,2054.4528 1464.094,1900.7764 1457.631,1899.8056 1451.0676,1900.2313 1444.5,1899.9043 Z"
           clip-path="url(#clipPath3652)" />
      </g>
      <g
         style="stroke:none"
         id="g4347">
        <g
           style="stroke:none"
           id="g4324"
           transform="matrix(1.0034727,0,0,1.0034729,1.281281,-6.8377151)">
          <path
             inkscape:original-d="m 2215.1562,500 c 0,0 43.8216,50.95264 59.0602,81.1976 40.3788,80.14209 59.6801,173.63623 41.5091,261.97677 -17.1001,83.13444 -71.3383,157.71983 -142.8975,203.17383 -66.6713,42.3492 -152.1447,54.631 -227.5523,28.8664 -50.2497,-17.1689 -95.3534,-48.9167 -125.8589,-92.78857 -57.0001,-81.97538 -86.5,-181.96085 -158.2064,-253.66097 -44.1544,-44.15054 -109.862,-58.86085 -170.8254,-52.84395 -55.0195,5.43025 -110.1476,16.48579 -159.5859,42.3713 -49.4356,25.8841 -95.8896,58.17257 -131.8866,101.10311 -47.7546,56.95279 -84.7015,122.78379 -110.838,192.09658 -42.384,112.4002 -45.0896,234.6887 -43.9079,353.4534 0.593,59.5956 10.8935,119.4674 29.4591,176.2635 18.5655,56.7961 46.6705,110.0519 83.1845,157.745 104.3387,136.2829 261.3488,229.3059 430.0386,258.9972 82.0316,14.4385 165.9054,13.242 248.5461,3.8619 101.1922,-11.4857 202.7599,-34.5403 291.6389,-85.2979 159.831,-91.2772 281.6824,-229.7218 360.4957,-388.1097 83.3243,-167.4536 110.8416,-364.2602 67.9721,-547.46972 C 2526.5162,817.06225 2460.0323,702.74456 2375.7825,609.4848 2332.3457,561.40275 2215.1562,500 2215.1562,500 Z"
             inkscape:path-effect="#path-effect3895"
             sodipodi:nodetypes="cssssssssssssssssssac"
             inkscape:connector-curvature="0"
             id="path983-7"
             d="m 2215.1562,500 c 22.8595,24.55673 42.7378,51.886 59.0602,81.1976 43.9799,78.97876 61.2121,173.75167 41.5091,261.97677 -18.5385,83.01071 -70.3755,158.73273 -142.8975,203.17383 -67.3402,41.2657 -152.814,54.3956 -227.5523,28.8664 -50.053,-17.0972 -93.8823,-50.6566 -125.8589,-92.78857 -30.3199,-39.94903 -49.9819,-86.73299 -71.992,-131.79708 -22.0102,-45.0641 -47.5282,-89.94838 -86.2144,-121.86389 -46.9916,-38.76738 -109.9355,-54.72691 -170.8254,-52.84395 -55.4533,1.71484 -110.0759,17.33593 -159.5859,42.3713 -49.713,25.13804 -94.5466,59.76266 -131.8866,101.10311 -49.8771,55.22076 -86.0722,121.92741 -110.838,192.09658 -39.7732,112.6897 -50.5591,234.136 -43.9079,353.4534 3.3248,59.645 11.0075,119.447 29.4591,176.2635 18.4434,56.791 47.4777,109.8868 83.1845,157.745 102.5185,137.4067 261.0574,230.0836 430.0386,258.9972 81.956,14.0231 165.9849,13.7143 248.5461,3.8619 101.1093,-12.0659 201.1154,-38.6697 291.6389,-85.2979 159.8359,-82.3306 284.2858,-225.2665 360.4957,-388.1097 79.3638,-169.5824 108.535,-364.6817 67.9721,-547.46972 C 2527.8825,816.47613 2467.465,698.06995 2375.7825,609.4848 2328.9588,564.24294 2274.3838,527.04401 2215.1562,500 Z"
             style="fill:#4baff8;fill-opacity:1;stroke:none;display:inline" />
          <path
             clip-path="url(#clipPath4111)"
             sodipodi:nodetypes="sssssssssssssssssssssssssssss"
             inkscape:original-d="m 1440.7263,544.4236 c -229.502,4.22367 -303.1427,-7.92805 -389.4407,221.62806 -17.9533,47.7565 -29.8022,99.58653 -23.318,150.86009 2.2051,17.43716 12.9477,37.07041 32.068,38.8625 22.8538,2.14201 39.5809,-34.39384 56.6894,-47.63249 13.5088,-10.45318 26.9841,-2.60857 41.9218,-11.88627 37.9558,-23.57406 61.8931,-63.56368 97.071,-90.92179 42.4805,-33.03737 93.2025,-54.25094 146.1109,-63.48989 55.5278,-9.69636 113.9221,-19.09125 168.9612,-3.11277 52.2507,15.16897 91.6269,59.02962 114.7543,106.96257 25.5891,53.03499 33.4988,114.40939 70.443,161.85309 35.8097,45.9868 85.8778,79.812 140.0068,100.484 43.7702,16.7159 91.14,21.411 137.6883,22.0186 48.0468,0.6272 95.8125,-11.6761 138.1645,-34.2722 55.735,-29.7363 108.6824,-72.0769 134.5254,-131.17407 27.5234,-62.93983 26.2939,-133.80484 18.2672,-200.82413 -3.0614,-25.56128 -8.4304,-50.78191 -17.8849,-74.82671 -16.0427,-40.80016 -31.0005,-83.89594 -61.3334,-116.54093 -11.2503,-12.10784 -29.8606,-19.94015 -45.7121,-11.22834 -24.3959,13.40767 -35.8374,40.21959 -46.5324,64.33373 -27.584,62.19421 -37.775,130.07668 -50.8194,196.40803 -3.6251,18.43404 -9.9396,40.20951 -27.6016,49.64982 -22.4439,11.99622 -48.9179,2.62933 -71.6066,-4.30189 -16.9027,-5.16364 -34.965,-10.15161 -48.6259,-21.55395 -13.9955,-11.68162 -14.153,-32.69558 -27.0147,-45.80656 -20.9766,-21.38311 -48.3121,-34.47086 -74.1995,-48.62335 -54.4232,-29.75286 -109.1242,-58.97522 -163.2753,-89.21964 C 1624.599,625.52267 1557.8519,591.23847 1489.0666,561.36019 1473.4274,554.567 1458.1241,544.10342 1440.7263,544.4236 Z"
             inkscape:path-effect="#path-effect3959"
             inkscape:connector-curvature="0"
             id="path3797"
             d="m 1440.7263,544.4236 c -78.573,-21.34821 -165.1087,-4.84703 -234.5619,37.64676 -69.4532,42.49379 -122.2696,109.37493 -154.8788,183.9813 -20.7096,47.38134 -33.7892,100.22184 -23.318,150.86009 1.834,8.86926 4.4613,17.77434 9.6646,25.1874 2.6016,3.70653 5.8376,6.99789 9.6545,9.43466 3.817,2.43677 8.2269,3.99964 12.7489,4.24044 6.3819,0.33983 12.7109,-1.96395 17.9992,-5.55252 5.2883,-3.58856 9.631,-8.40443 13.5264,-13.47095 3.8954,-5.06652 7.3972,-10.42835 11.3489,-15.45111 3.9517,-5.02276 8.4095,-9.74826 13.8149,-13.15791 6.1757,-3.89559 13.3392,-5.92178 20.4905,-7.39654 7.1513,-1.47477 14.4196,-2.45235 21.4313,-4.48973 21.607,-6.27829 39.1389,-22.10537 53.7396,-39.2255 14.6007,-17.12013 27.1584,-36.05294 43.3314,-51.69629 19.3445,-18.71103 43.32,-32.12731 68.4124,-41.85771 25.0925,-9.73039 51.3969,-15.92798 77.6985,-21.63218 27.8917,-6.04905 56.0071,-11.59318 84.4998,-13.23591 28.4928,-1.64274 57.5157,0.71736 84.4614,10.12314 50.5891,17.65887 90.3239,59.2735 114.7543,106.96257 26.884,52.47867 37.4545,112.98064 70.443,161.85309 32.6932,48.4349 84.9078,81.019 140.0068,100.484 44.0808,15.5725 90.9645,23.601 137.6883,22.0186 47.7729,-1.618 95.1928,-13.3366 138.1645,-34.2722 57.3953,-27.9627 107.2921,-73.4292 134.5254,-131.17407 29.1505,-61.81006 30.9003,-133.66282 18.2672,-200.82413 -4.7417,-25.20838 -11.4046,-50.00832 -17.8849,-74.82671 -5.6691,-21.71193 -11.2478,-43.58728 -20.4972,-64.03223 -9.2494,-20.44495 -22.4787,-39.60332 -40.8362,-52.5087 -6.6221,-4.65537 -13.9004,-8.47229 -21.7044,-10.62208 -7.8041,-2.14978 -16.1588,-2.58615 -24.0077,-0.60626 -6.7384,1.69978 -12.9791,5.14568 -18.2934,9.6239 -5.3142,4.47821 -9.7229,9.97141 -13.3235,15.91545 -7.2013,11.88807 -11.1497,25.4152 -14.9155,38.79438 -18.323,65.09812 -34.1242,130.87356 -50.8194,196.40803 -2.4005,9.42275 -4.8441,18.90957 -9.0286,27.68685 -4.1845,8.77728 -10.2709,16.90084 -18.573,21.96297 -10.5487,6.43193 -23.6788,7.33044 -35.8932,5.47254 -12.2145,-1.85791 -23.8747,-6.24047 -35.7134,-9.77443 -8.5894,-2.56402 -17.3227,-4.69444 -25.7111,-7.85478 -8.3883,-3.16034 -16.5101,-7.42759 -22.9148,-13.69917 -6.3601,-6.22796 -10.7627,-14.15668 -14.6591,-22.16025 -3.8963,-8.00358 -7.4037,-16.24921 -12.3556,-23.64631 -8.347,-12.46859 -20.4781,-22.00391 -33.4842,-29.48572 -13.0062,-7.48181 -26.9873,-13.0812 -40.7153,-19.13763 -56.7773,-25.04863 -109.586,-58.09797 -163.2753,-89.21964 -64.8804,-37.60872 -131.442,-72.59914 -200.967,-100.70892 C 1473.228,554.95647 1457.2127,548.90295 1440.7263,544.4236 Z"
             style="fill:#69cef7;fill-opacity:1;stroke:none;display:inline" />
          <path
             clip-path="url(#clipPath3992)"
             inkscape:original-d="m 1914.3537,1942.1719 c 20.0381,-1.8533 -1.0446,-20.8089 3.2806,-29.9675 8.1945,-17.2128 28.0407,-23.1513 41.3251,-35.4445 35.0012,-23.2397 77.7256,-28.5888 115.3169,-46.1742 48.7849,-21.0186 96.2193,-46.0584 139.0582,-77.5958 58.1073,-44.9012 97.7723,-108.0566 134.3539,-170.6086 53.3974,-94.0821 95.8167,-194.7953 121.0634,-300.146 29.283,-120.8436 37.9111,-247.5647 17.7298,-370.5903 -9.0789,-61.78073 -24.5007,-123.47003 -54.7222,-178.55842 -18.6707,-36.28568 -37.3252,-72.72327 -59.0945,-107.25594 -20.6865,-32.57156 -112.7326,-120.85515 -112.7326,-120.85515 0,0 68.0592,43.98906 105.2907,60.42072 24.3071,10.72762 48.9549,20.8002 72.8287,32.0307 123.1373,47.04681 184.4006,105.08117 215.3332,222.5594 36.7848,132.02815 47.4154,258.77729 36.6682,377.41189 -28.1935,311.2161 -203.5053,566.5893 -439.7099,714.9275 -60.4917,29.5691 -129.5795,25.8443 -195.0509,25.7439 -48.0477,-0.743 -96.5843,-1.8744 -143.9949,7.3101 C 1912.2423,1944.2373 1913.2622,1943.1748 1914.3537,1942.1719 Z"
             inkscape:path-effect="#path-effect3969"
             sodipodi:nodetypes="cccccccccccsccscccc"
             inkscape:connector-curvature="0"
             id="path2871"
             d="m 1914.3537,1942.1719 c -1.5626,-10.0451 -0.4183,-20.4984 3.2806,-29.9675 6.8743,-17.5981 22.8853,-31.3307 41.3251,-35.4445 38.8678,-14.2902 77.3276,-29.6899 115.3169,-46.1742 48.8388,-21.1921 97.3794,-44.4716 139.0582,-77.5958 57.0342,-45.3279 98.6956,-107.0791 134.3539,-170.6086 52.9596,-94.354 94.8191,-195.1764 121.0634,-300.146 30.2194,-120.8688 39.4805,-247.9144 17.7298,-370.5903 -10.8942,-61.44427 -29.4863,-121.48627 -54.7222,-178.55842 -16.5314,-37.38645 -35.9414,-73.56663 -59.0945,-107.25594 -31.3177,-45.56943 -69.4486,-86.44776 -112.7326,-120.85515 33.7509,22.37325 68.945,42.56922 105.2907,60.42072 23.8112,11.69507 48.1163,22.38465 72.8287,32.0307 94.1149,47.05321 171.411,126.94318 215.3332,222.5594 53.5377,116.54856 56.8013,250.74499 36.6682,377.41189 -45.0733,283.5786 -206.954,546.7814 -439.7099,714.9275 -64.5715,11.5959 -129.682,20.1895 -195.0509,25.7439 -47.8968,4.0698 -95.9322,6.5083 -143.9949,7.3101 L 1914.3537,1942.1719 Z"
             style="fill:#3883a9;fill-opacity:1;stroke:none" />
        </g>
        <path
           style="fill:#69cef7;fill-opacity:1;stroke:none"
           d="m 1703.3204,417.61545 c -7.4196,0.0596 -14.8518,0.41764 -22.1876,1.53126 -28.4568,4.31995 -55.1202,20.70644 -70.8038,44.84101 -5.9161,9.104 -10.3163,19.32059 -11.8164,30.07388 -1.5001,10.75329 0.023,22.06596 5.2452,31.58511 4.9528,9.0284 13.0911,16.15486 22.4443,20.46296 9.3532,4.30811 19.8653,5.86662 30.1351,5.10896 9.1706,-0.67657 18.2636,-3.20028 26.1952,-7.85291 3.2386,-1.89972 6.2696,-4.14186 9.1147,-6.59193 4.0988,-3.52974 7.82,-7.49777 11.0795,-11.81458 l 5.397,3.65111 c 1.4079,0.95248 2.7926,1.95275 4.0012,3.148 1.2087,1.19525 2.2446,2.55245 3.2282,3.93883 1.8913,2.66583 3.6466,5.43447 5.121,8.35163 4.1376,8.18631 5.9818,17.4672 5.6543,26.63387 -0.3544,9.91933 -3.2036,19.65431 -7.5267,28.58906 -7.8074,16.13596 -20.3943,29.73342 -35.1641,39.89103 -14.7698,10.15762 -31.6744,16.97196 -49.0859,21.23399 -20.631,5.05011 -41.9448,6.58399 -63.1562,7.68749 -6.9754,0.36289 -13.9583,0.68135 -20.9424,0.58042 -7.9837,-0.11538 -16.0791,-0.7688 -23.8687,0.98491 -3.8948,0.87686 -7.6854,2.3681 -10.9363,4.68539 -3.251,2.31729 -5.9448,5.49175 -7.3777,9.21803 -1.3422,3.49037 -1.5405,7.38557 -0.7201,11.03402 0.8204,3.64845 2.6383,7.04667 5.094,9.8669 4.9114,5.64046 12.2062,8.83113 19.609,9.89715 7.4027,1.06601 14.9549,0.1713 22.2906,-1.28651 7.3356,-1.45782 14.5582,-3.47685 21.9379,-4.69205 33.2319,-5.47223 68.8603,6.73189 91.7575,31.4305 5.0917,7.48338 12.2018,13.57933 20.3749,17.46875 7.3337,3.48997 15.3639,5.18454 23.2186,7.25 7.8166,2.05544 15.5455,4.50629 23.5001,5.93751 5.0291,0.90485 10.1234,1.39723 15.2188,1.78125 34.2225,2.57922 69.6428,0.0777 100.8815,-14.13423 10.8793,-4.94947 21.2071,-11.33034 29.7504,-19.68906 13.1004,-12.81741 21.6065,-30.11659 24.3274,-48.24124 2.6082,-17.37409 -0.1355,-35.74855 -9.0218,-50.90424 -5.6778,-9.68346 -13.8243,-17.96639 -23.6203,-23.44772 -17.0952,-9.56562 -38.5075,-9.99924 -56.8485,-3.11758 -10.296,3.86312 -19.8506,9.98526 -27.0077,18.33435 -7.157,8.34909 -11.8097,18.99144 -12.211,29.98095 -0.307,8.40716 1.8963,16.91325 6.3853,24.02826 4.489,7.115 11.2641,12.79192 19.1147,15.8155 0.9531,0.36708 1.9209,0.6959 2.9004,0.98542 -0.8693,1.76665 -1.9274,3.44032 -3.1504,4.98333 -2.9075,3.66812 -6.7174,6.55622 -10.8416,8.76964 -4.1242,2.21342 -8.5678,3.77553 -13.0647,5.0741 -21.4783,6.20228 -44.6852,6.44742 -66.21,0.40847 -12.0227,-3.37307 -23.7374,-8.83322 -32.5713,-17.65846 -1.8596,-1.85772 -3.581,-3.85368 -5.1454,-5.96595 9.7356,-1.81149 19.3233,-4.417 28.6367,-7.78214 10.0419,-3.62839 19.7938,-8.15647 28.7304,-13.9997 19.5398,-12.77619 34.4898,-31.32072 48.7783,-49.78347 5.9368,-7.67122 11.861,-15.45025 16.1036,-24.17346 4.1261,-8.48376 6.5737,-17.68929 8.3652,-26.95155 5.7258,-29.60366 4.8315,-60.8109 -5.1874,-89.25001 -3.9894,-11.32416 -9.4318,-22.21092 -16.8438,-31.65624 -17.9853,-22.91915 -47.212,-35.93539 -76.3438,-36.25001 C 1705.2787,417.60488 1704.2995,417.60758 1703.3204,417.61545 Z"
           id="path1034"
           inkscape:connector-curvature="0"
           sodipodi:nodetypes="sssssscccscssssscscssssscscsssscssssccsssscsss"
           inkscape:path-effect="#path-effect4087"
           inkscape:original-d="m 1703.3204,417.61545 c -6.9282,0.0712 -14.2994,0.60095 -22.1876,1.53126 -30.629,3.61228 -56.6316,21.86313 -70.8038,44.84101 -11.8305,19.18088 -15.4175,41.65562 -6.5712,61.65899 8.2672,18.69373 30.7376,27.35029 52.5794,25.57192 9.2149,-0.75029 18.3179,-3.35799 26.1952,-7.85291 3.2771,-1.86997 6.3421,-4.06656 9.1147,-6.59193 4.2577,-4.26076 6.6825,-7.97201 11.0795,-11.81458 l 5.397,3.65111 c 2.8365,2.0105 5.2086,4.44327 7.2294,7.08683 2.0208,2.64356 3.6902,5.49792 5.121,8.35163 3.9468,7.92313 5.899,17.11557 5.6543,26.63387 -0.2446,9.51831 -2.6861,19.36248 -7.5267,28.58906 -15.9071,30.32021 -40.1702,47.90993 -84.25,61.12502 -21.1537,6.34183 -25.3431,6.85122 -63.1562,7.68749 -9.607,0.21248 -16.2671,0.3816 -20.9424,0.58042 -8.6996,0.36994 -41.0275,13.84263 -42.1827,14.88833 -14.2505,11.82645 27.1016,11.93874 68.2114,24.81951 41.1098,12.88078 86.9773,24.53004 91.7575,31.4305 6.2089,10.30102 11.4088,14.76036 20.3749,17.46875 4.087,1.23456 14.5334,4.50755 23.2186,7.25 8.6857,2.74248 19.2605,5.41786 23.5001,5.93751 4.2396,0.51964 11.0938,1.3098 15.2188,1.78125 37.9612,4.33856 73.1296,-0.98731 100.8815,-14.13423 11.2344,-5.32209 21.2534,-11.92588 29.7504,-19.68906 14.7672,-12.73498 22.3264,-30.2662 24.3274,-48.24124 2.0012,-17.97503 -1.5561,-36.39392 -9.0218,-50.90424 -5.6017,-10.65338 -13.9245,-18.38762 -23.6203,-23.44772 -17.141,-8.94565 -38.5733,-9.53359 -56.8485,-3.11758 -21.1487,7.42482 -38.0693,24.22925 -39.2187,48.3153 -0.9065,18.9952 10.5311,36.85112 25.5,39.84376 1.6516,0.33019 2.9004,0.98542 2.9004,0.98542 0,0 -0.6374,1.91644 -3.1504,4.98333 -4.6027,5.61696 -7.359,7.21068 -23.9063,13.84374 -18.9392,7.59192 -44.3025,7.15729 -66.21,0.40847 -12.64,-3.89384 -24.1297,-9.88963 -32.5713,-17.65846 -3.6764,-3.38358 -5.1454,-5.96595 -5.1454,-5.96595 8.9327,-3.10721 19.6455,-4.74755 28.6367,-7.78214 10.2576,-3.49473 19.7206,-8.08128 28.7304,-13.9997 17.1132,-11.24125 32.5922,-27.2875 48.7783,-49.78347 9.0141,-12.52787 13.2036,-18.11916 16.1036,-24.17346 2.8998,-6.0543 4.5101,-12.57161 8.3652,-26.95155 6.5438,-24.40889 4.0772,-66.83088 -5.1874,-89.25001 -7.9566,-19.25312 -9.9799,-23.04485 -16.8438,-31.65624 -19.6992,-24.71455 -42.6442,-35.95281 -76.3438,-36.25001 C 1705.2858,417.60686 1704.3101,417.60525 1703.3204,417.61545 Z" />
      </g>
      <g
         style="stroke:none"
         id="g4319">
        <path
           inkscape:original-d="m 1363.3125,1277.25 c -26.5551,0.016 -53.1641,2.0072 -78.853,8.891 -8.1144,2.1744 -18.7064,5.5253 -24.8374,7.5802 -22.5882,7.5707 -44.4992,18.2112 -64.2159,31.6221 -8.4137,5.7228 -21.0836,15.4173 -29.8301,24.2626 -21.7586,22.0045 -39.5587,48.7636 -45.7582,79.4782 -7.0228,34.7932 -3.4253,70.6575 2.2552,105.2742 14.6012,88.9786 60.0182,171.6651 123.9768,234.9801 66.1175,65.4521 148.3109,112.6487 234.2322,146.7932 114.463,45.4868 240.3953,57.9905 362.5546,44.9183 82.1542,-8.7913 180.9554,-18.3561 256.1816,-53.3621 44.3436,-20.635 128.375,-72.7717 189.8073,-120.628 55.9077,-43.5528 91.5522,-84.0757 91.5522,-84.0757 0,0 -83.6597,33.065 -89.3174,35.0181 -24.2837,8.3831 -48.9532,16.0113 -74.0974,21.121 -14.6754,2.9823 -27.8461,6.17 -42.3688,8.2513 -52.5402,7.5299 -105.9522,11.3493 -158.6876,5.375 -10.7793,-1.2212 -25.6573,-4.2045 -38.0473,-6.8848 -80.9417,-17.5099 -155.4425,-66.6629 -199.5836,-137.4675 -28.5621,-45.815 -56.9921,-91.7404 -88.5083,-135.6411 -48.8195,-68.0036 -103.9718,-134.8538 -177.8098,-176.5629 C 1466.9044,1290.7439 1415.1995,1277.2188 1363.3125,1277.25 Z"
           inkscape:path-effect="#path-effect4004"
           style="color:#000000;color-interpolation:sRGB;color-interpolation-filters:linearRGB;fill:#d2d3d3;fill-opacity:1;fill-rule:nonzero;stroke:none;stroke-width:3.02859402;marker:none;visibility:visible;display:inline;overflow:visible;enable-background:accumulate;clip-rule:nonzero"
           d="m 1363.3125,1277.25 c -26.527,-0.5097 -53.1564,2.2858 -78.853,8.891 -8.3862,2.1556 -16.6669,4.7136 -24.8374,7.5802 -22.5762,7.9207 -44.3813,18.2426 -64.2159,31.6221 -10.6412,7.178 -20.7078,15.2326 -29.8301,24.2626 -22.0018,21.7793 -38.3783,49.4123 -45.7582,79.4782 -8.4388,34.3798 -5.0462,70.635 2.2552,105.2742 18.4999,87.7666 62.1893,169.9606 123.9768,234.9801 64.0679,67.4191 146.5204,115.8632 234.2322,146.7932 115.6008,40.7646 240.1741,51.8701 362.5546,44.9183 87.5185,-4.9715 175.4234,-19.2694 256.1816,-53.3621 69.3159,-29.2622 131.9654,-72.5106 189.8073,-120.628 31.8655,-26.5082 62.4317,-54.5783 91.5522,-84.0757 -29.1728,13.1312 -58.9935,24.8228 -89.3174,35.0181 -24.3541,8.1882 -49.0453,15.4148 -74.0974,21.121 -14.0311,3.1959 -28.1695,5.9136 -42.3688,8.2513 -52.407,8.628 -105.9972,12.0578 -158.6876,5.375 -12.7927,-1.6225 -25.517,-3.839 -38.0473,-6.8848 -79.9993,-19.4456 -149.0885,-72.4424 -199.5836,-137.4675 -33.1276,-42.66 -58.9826,-90.4134 -88.5083,-135.6411 -46.1529,-70.6973 -103.2866,-136.8831 -177.8098,-176.5629 C 1466.3274,1291.8974 1414.9982,1278.2431 1363.3125,1277.25 Z"
           id="path3250"
           inkscape:connector-curvature="0"
           sodipodi:nodetypes="sssssssssssscsssssssss"
           clip-path="url(#clipPath4045)" />
        <path
           style="color:#000000;color-interpolation:sRGB;color-interpolation-filters:linearRGB;fill:#e4e4e4;fill-opacity:1;fill-rule:nonzero;stroke:none;stroke-width:3.02859402;marker:none;visibility:visible;display:inline;overflow:visible;enable-background:accumulate;clip-rule:nonzero"
           d="m 1199.5332,1229.9491 c -6.7163,47.795 -8.925,96.2224 -6.5871,144.4303 2.7192,56.0712 11.6459,112.0439 29.495,165.2678 10.8695,32.4116 25.0152,63.71 41.9326,93.4162 22.037,38.6958 48.7882,74.6965 79.4018,107.0353 34.4514,36.3928 73.8595,68.184 117.2275,93.2948 62.2652,36.0526 132.5832,58.0837 204.2798,64.1119 48.5901,4.0854 97.4977,0.9164 146.0301,-3.8054 74.7969,-7.2771 149.651,-18.3371 221.1403,-41.5062 45.6982,-14.8104 90.0982,-34.6899 129.0937,-62.7438 24.8127,-17.8506 47.3007,-38.9285 66.7185,-62.5349 l 21.6248,-50.4896 L 1199.5332,1229.9491 Z"
           id="path3273-5"
           inkscape:connector-curvature="0"
           sodipodi:nodetypes="ccccccccccccc"
           inkscape:path-effect="#path-effect3483"
           inkscape:original-d="m 1199.5332,1229.9491 c -11.5004,14.7511 -5.3861,127.3448 -6.5871,144.4303 -3.1595,56.4518 10.0049,112.6198 29.495,165.2678 12.5778,31.7397 27.2893,62.5948 41.9326,93.4162 20.0854,39.9257 47.5145,75.8214 79.4018,107.0353 34.7857,35.9194 71.8184,71.1596 117.2275,93.2948 63.7953,32.7556 133.3698,53.9178 204.2798,64.1119 48.6392,5.3845 97.4188,-1.5435 146.0301,-3.8054 74.9415,-4.8733 150.7207,-14 221.1403,-41.5062 45.0754,-16.1018 91.5024,-32.0278 129.0937,-62.7438 8.8665,-7.1346 60.2499,-52.9775 66.7185,-62.5349 -5.7614,-3.6856 28.9362,-50.3998 21.6248,-50.4896 C 1705.7847,2096.5166 1252.046,787.37879 1199.5332,1229.9491 Z"
           clip-path="url(#clipPath4082)" />
        <path
           style="color:#000000;color-interpolation:sRGB;color-interpolation-filters:linearRGB;fill:#ffffff;fill-opacity:1;fill-rule:nonzero;stroke:none;stroke-width:3.02859402;marker:none;visibility:visible;display:inline;overflow:visible;enable-background:accumulate;clip-rule:nonzero"
           d="m 1242.6626,1119.865 c -7.0662,2.5073 -13.5631,6.6647 -18.6695,12.155 -5.1064,5.4902 -8.7986,12.3153 -10.4252,19.6346 -1.9568,8.8052 -0.9112,18.0705 1.6548,26.7178 2.566,8.6473 6.6033,16.7757 10.716,24.8035 9.8471,19.2209 20.2444,38.16 31.1749,56.7861 -1.3018,48.9683 2.3617,98.0672 10.9161,146.3001 13.1792,74.3088 38.264,147.0413 78.7531,210.729 20.5858,32.3807 45.1046,62.3351 73.4657,88.1795 32.0852,29.238 68.9328,53.0686 108.123,71.7354 70.8363,33.7403 149.2934,50.5711 227.7415,52.0176 67.3395,1.2416 135.0103,-8.7703 198.5958,-30.9747 37.5532,-13.1138 74.0372,-30.7035 104.3866,-56.416 28.1222,-23.8256 50.5736,-54.5694 63.3572,-89.1396 6.3441,-17.1561 10.3115,-35.1893 11.7536,-53.4239 -8.7158,-7.6601 -19.1114,-13.3987 -30.2378,-16.6919 -13.5335,-4.0057 -28.2315,-4.4939 -40.762,-10.989 -10.4322,-5.4074 -18.4894,-14.6081 -24.5173,-24.6944 -6.028,-10.0864 -10.227,-21.1344 -14.6799,-32.0083 -40.9518,-100.0036 -107.1288,-190.8574 -195.29,-253.3504 -47.3473,-33.5621 -100.5693,-58.704 -156.3633,-74.6791 -118.2721,-33.8639 -245.3796,-26.3647 -363.6055,-60.3894 -10.8226,-3.1147 -21.5908,-6.5819 -32.7149,-8.3378 C 1264.9113,1116.0733 1253.2761,1116.099 1242.6626,1119.865 Z"
           id="path3273"
           inkscape:connector-curvature="0"
           inkscape:path-effect="#path-effect3475"
           inkscape:original-d="m 1242.6626,1119.865 c -16.8672,0.032 -26.9306,16.8135 -29.0947,31.7896 -3.6519,18.0282 1.3816,36.9403 12.3708,51.5213 12.4224,17.5812 28.9539,34.2638 31.1749,56.7861 8.0639,48.4148 2.5394,97.9161 10.9161,146.3001 11.7002,74.6101 40.1044,146.0785 78.7531,210.729 19.7285,33.0255 45.1207,62.2842 73.4657,88.1795 31.505,29.9316 67.3859,55.9416 108.123,71.7354 72.3625,29.9396 150.1832,43.9829 227.7415,52.0176 67.6055,5.1523 134.3469,-11.8754 198.5958,-30.9747 38.185,-11.3958 74.485,-29.8516 104.3866,-56.416 28.0484,-23.9582 49.8043,-54.8587 63.3572,-89.1396 6.7995,-16.8721 13.4182,-34.972 11.7536,-53.4239 -2.9886,-13.3483 -18.7466,-15.8957 -30.2378,-16.6919 -14.1744,-0.4008 -29.418,-1.3558 -40.762,-10.989 -18.3526,-14.69 -26.8939,-37.3535 -39.1972,-56.7027 -53.9968,-92.1122 -114.8922,-182.07 -195.29,-253.3504 -43.9752,-38.5291 -98.2664,-66.0495 -156.3633,-74.6791 -120.8728,-22.0165 -241.7104,-44.6683 -363.6055,-60.3894 C 1286.8584,1122.9616 1264.8716,1119.217 1242.6626,1119.865 Z"
           sodipodi:nodetypes="cccccccccccccccccccc"
           clip-path="url(#clipPath4078)" />
      </g>
      <g
         id="g3312"
         style="stroke:none;display:inline">
        <path
           sodipodi:nodetypes="ccccccscccccccccccscccccscccc"
           inkscape:original-d="m 983,743 c 0,0 9.50133,20.15033 14.5672,30.01277 21.5831,35.09452 47.5212,68.14702 80.3332,93.4255 33.0715,26.1547 70.83,46.8955 111.5643,58.21726 19.8618,5.16356 40.059,9.54195 60.5834,10.82283 17.7712,-0.11565 34.4765,-11.07615 42.879,-26.53881 8.9783,-16.00031 12.9347,-34.47023 13.1852,-52.71334 0.2034,-14.81509 -4.4753,-30.45053 -15.7667,-40.57568 -4.9894,-4.42048 -11.4334,-7.82617 -18.2935,-7.07245 -6.3176,0.48747 -12.5963,1.55156 -18.9549,1.25263 -16.1626,0.42006 -32.3626,0.61903 -48.4786,-0.90601 -32.6092,-2.3188 -64.9045,-8.72091 -95.9583,-18.93094 -19.4899,-5.90919 -38.8943,-12.22597 -57.9926,-19.33547 C 1025.4651,763.44812 1006.1685,748.61263 983,743 z m 237.0938,219 c -9.3894,5.40636 -18.0047,12.57007 -28.6625,15.39973 -17.7969,7.01686 -36.5513,11.54496 -55.6026,13.31124 -20.4074,2.27601 -41.0781,1.06911 -61.2668,-2.49094 -11.8584,-1.95894 -29.2759,-6.49999 -43.7289,-10.55132 -14.4529,-4.05132 -25.9413,-7.61291 -25.9413,-7.61291 0,0 3.5481,9.34614 5.853,13.64945 6.9344,15.72196 19.4896,27.47125 30.3997,38.67845 9.1883,9.0152 19.794,16.5257 31.3427,22.2098 31.3843,16.2483 67.4021,22.7209 102.5479,20.508 11.5197,-0.8873 23.1126,-2.7963 34.2447,-6.1129 11.1322,-3.3166 21.8035,-8.0409 31.4801,-14.5591 12.943,-9.1526 22.6377,-24.0782 22.4789,-40.2966 0.4038,-10.90985 -0.8995,-22.98369 -8.7406,-31.28993 C 1245.8842,963.4963 1232.2336,961.149 1220.0938,962 Z"
           inkscape:path-effect="#path-effect3920"
           inkscape:connector-curvature="0"
           id="path3316-5"
           d="m 983,743 14.5672,30.01277 c 20.7345,35.72351 48.12,67.5721 80.3332,93.4255 32.9305,26.42908 70.9682,46.60391 111.5643,58.21726 19.7572,5.65194 40.0914,9.28451 60.5834,10.82283 17.1354,-2.39628 33.0909,-12.27148 42.879,-26.53881 10.4176,-15.18479 13.6358,-34.30409 13.1852,-52.71334 -0.1837,-7.50671 -0.9463,-15.07258 -3.3267,-22.19427 -2.3803,-7.12168 -6.4793,-13.81478 -12.44,-18.38141 -5.2505,-4.02252 -11.7322,-6.23697 -18.2935,-7.07245 -6.3204,-0.8048 -12.7954,-0.3769 -18.9549,1.25263 -16.156,0.76431 -32.3624,0.46143 -48.4786,-0.90601 -32.539,-2.76091 -64.5909,-9.84809 -95.9583,-18.93094 -19.5782,-5.66913 -38.9296,-12.12115 -57.9926,-19.33547 L 983,743 z m 237.0938,219 -28.6625,15.39973 c -17.8118,6.94383 -36.5773,11.43629 -55.6026,13.31124 -20.4025,2.01068 -41.0669,1.01216 -61.2668,-2.49094 -14.7811,-2.56337 -29.2975,-6.45413 -43.7289,-10.55132 -8.6693,-2.46128 -17.3168,-4.99904 -25.9413,-7.61291 l 5.853,13.64945 c 7.9214,14.44283 18.2377,27.56855 30.3997,38.67845 9.4773,8.6574 20.0604,16.0877 31.3427,22.2098 31.0774,16.8633 67.3193,23.5284 102.5479,20.508 11.5696,-0.992 23.0579,-2.9992 34.2447,-6.1129 11.2087,-3.1198 22.2756,-7.4426 31.4801,-14.5591 12.5158,-9.6767 21.0157,-24.544 22.4789,-40.2966 1.0286,-11.07321 -1.5567,-22.80078 -8.7406,-31.28993 -4.0969,-4.84123 -9.5851,-8.4913 -15.6338,-10.39764 C 1232.8155,960.53898 1226.2262,960.38265 1220.0938,962 Z"
           style="fill:#ffd006;fill-opacity:1;stroke:none;display:inline" />
        <path
           sodipodi:nodetypes="cac"
           inkscape:connector-curvature="0"
           d="m 1106.0135,795.60056 c -15.5322,-5.34348 -30.1404,-10.81377 -43.2537,-16.14278 -13.1133,-5.329 -24.7361,-10.51482 -34.4866,-15.00237 -9.7505,-4.48755 -17.6419,-8.26302 -23.3472,-10.60085 -5.70523,-2.33782 -9.2414,-3.21376 -10.10392,-2.02119 -0.86252,1.19257 1.04246,4.34954 5.44822,8.87754 4.4058,4.528 11.3307,10.40371 20.5132,16.78781 9.1824,6.38411 20.6314,13.25833 33.8786,19.85627 13.2471,6.59794 28.2902,12.91089 44.403,18.45011 10.2138,3.51127 20.235,6.51068 29.8277,9.05904 0,10e-6 0,10e-6 0,10e-6 13.1408,3.4858 25.5682,5.3997 36.7227,6.42755 11.1545,1.02785 21.0403,1.17601 29.2377,0.90802 8.1974,-0.26799 14.712,-0.95533 19.1896,-1.84197 4.4776,-0.88664 6.9214,-1.97956 6.975,-3.21695 0.054,-1.23739 -2.2896,-2.52225 -6.6221,-3.84888 -4.3326,-1.32664 -10.6586,-2.68853 -18.5192,-4.20926 -7.8605,-1.52073 -17.2551,-3.19518 -27.6446,-5.37326 -10.3895,-2.17807 -21.7683,-4.86291 -33.5633,-8.64946 0,0 0,0 0,0 C 1125.4781,802.13028 1115.8592,798.98775 1106.0135,795.60056 Z"
           id="path3354"
           inkscape:original-d="m 1221.0178,827.1408 c -30.0248,-1.30055 -60.4163,-3.77336 -89.2371,-12.17876 -48.2587,-14.07436 -95.9447,-33.46576 -136.95862,-63.12867"
           inkscape:path-effect="#path-effect2784"
           style="fill:#fff87f;fill-opacity:1;stroke:none" />
        <path
           clip-path="url(#clipPath3951)"
           sodipodi:nodetypes="csccssssssssssssscc"
           inkscape:connector-curvature="0"
           d="m 1231.5925,1015.2875 c -1.9081,-6.8858 -4.6055,-13.5589 -8.1078,-19.78701 -2.9764,-5.29293 -6.5314,-10.26018 -10.5814,-14.78472 -3.5037,-3.36394 -7.2292,-6.49677 -11.1444,-9.37139 -2.9768,-2.18563 -6.0824,-4.2327 -9.4665,-5.71122 -3.8761,-1.69349 -8.0442,-2.61025 -12.0053,-4.0941 -3.9611,-1.48385 -7.8565,-3.66888 -10.2021,-7.18888 -0.6777,-1.01706 -1.2156,-2.13659 -1.4962,-3.3261 -0.2807,-1.18951 -0.2977,-2.45174 0.04,-3.62646 0.3913,-1.36301 1.2499,-2.56837 2.3327,-3.48401 1.0829,-0.91564 2.3827,-1.55229 3.7371,-1.97243 2.7088,-0.84029 5.5945,-0.82972 8.425,-1.00814 10.764,-0.67849 21.2645,-4.18116 32.0498,-4.16291 8.8516,0.015 17.5668,2.41876 25.7103,5.88773 22.409,9.54575 41.3418,27.90119 49.6876,50.78419 2.3519,6.44853 3.8759,13.23645 4.0432,20.09845 0.1674,6.862 -1.0509,13.8048 -3.9642,20.0199 -4.7766,10.1901 -13.6908,17.766 -22.6537,24.5719 -1.5177,1.1524 -3.0553,2.2994 -4.7619,3.1475 -1.7065,0.848 -3.6075,1.3893 -5.5083,1.2534 -1.379,-0.099 -2.7048,-0.5462 -4.0358,-0.9201 -1.331,-0.374 -2.7194,-0.679 -4.0882,-0.4844 -1.7637,0.2508 -3.319,1.3123 -4.5759,2.5747 -1.2569,1.2623 -2.2754,2.7386 -3.4367,4.0895 -1.1612,1.3509 -2.5144,2.6077 -4.1811,3.2367 -0.8334,0.3144 -1.7362,0.463 -2.622,0.3705 -0.8859,-0.092 -1.7532,-0.4331 -2.4274,-1.0152 -0.8173,-0.7057 -1.3138,-1.7284 -1.5477,-2.7826 -0.2339,-1.0541 -0.2244,-2.1466 -0.1659,-3.2248 0.274,-5.0507 1.6116,-10.0413 3.9004,-14.552 C 1235.7027,1038.2624 1234.6957,1026.4864 1231.5925,1015.2875 Z"
           id="path3328"
           inkscape:original-d="m 1231.5925,1015.2875 c -2.5626,-6.655 -5.3419,-13.2187 -8.1078,-19.78701 -2.3688,-5.62536 -5.9499,-10.75174 -10.5814,-14.78472 -3.1094,-4.23068 -8.3242,-5.57816 -11.1444,-9.37139 -2.2175,-3.03832 -6.1707,-4.10169 -9.4665,-5.71122 -7.4499,-3.63826 -15.4364,-6.36216 -22.2074,-11.28298 -2.1731,-1.57933 -3.8366,-4.83406 -1.4566,-6.95256 4.0371,-3.59346 9.3967,-5.12921 14.4948,-6.46458 10.4443,-2.73573 21.2687,-3.98986 32.0498,-4.16291 8.8795,-0.14253 17.5661,2.53377 25.7103,5.88773 22.48,9.25773 41.2288,27.88522 49.6876,50.78419 4.7153,12.76485 5.5138,27.42315 0.079,40.11835 -4.4821,10.4699 -12.8555,18.9281 -22.6537,24.5719 -3.2219,1.8558 -6.5306,4.0386 -10.2702,4.4009 -2.798,0.271 -5.2196,-2.5249 -8.124,-1.4045 -6.1245,2.3626 -10.8482,7.7244 -17.2431,9.2562 -3.0385,0.7278 -2.0985,-4.0503 -1.7136,-6.0074 0.9712,-4.9384 3.6496,-9.5322 3.9004,-14.552 C 1232.9571,1038.3331 1235.2212,1025.1639 1231.5925,1015.2875 Z"
           inkscape:path-effect="#path-effect3907"
           style="fill:#ff6d19;fill-opacity:1;stroke:none" />
        <path
           clip-path="url(#clipPath3945)"
           inkscape:original-d="m 1191.5879,952.66169 c -1.0172,-0.25693 19.4846,-19.47498 21.8766,-23.63608 11.7326,-20.71809 14.8592,-44.27559 18.7417,-67.20599 2.8889,-17.0619 2.4423,-34.52586 3.2941,-51.80963 0.9208,-18.68368 -6.5999,-51.88957 1.9631,-56.08472 45.9321,-22.50288 93.2066,40.91063 97.0704,102.57261 1.9403,30.96518 -7.0667,61.48865 -32.6885,80.46822 C 1279.2759,953.68454 1243.8146,961.44579 1191.5879,952.66169 Z"
           inkscape:path-effect="#path-effect3905"
           sodipodi:nodetypes="ccsssssc"
           inkscape:connector-curvature="0"
           id="path3314"
           d="m 1191.5879,952.66169 c 8.7264,-6.36793 16.2014,-14.44406 21.8766,-23.63608 12.3152,-19.94662 15.692,-43.96311 18.7417,-67.20599 2.2552,-17.1879 4.4838,-34.51529 3.2941,-51.80963 -0.6511,-9.46509 -2.3233,-18.8464 -2.7437,-28.32454 -0.4205,-9.47814 0.4889,-19.26187 4.7068,-27.76018 3.8159,-7.68843 10.2598,-13.98772 17.8911,-17.91654 7.6314,-3.92883 16.4014,-5.51408 24.9573,-4.82937 8.556,0.68471 16.8852,3.60308 24.1766,8.13175 7.2914,4.52867 13.5536,10.64309 18.5299,17.63664 9.9526,13.9871 14.6302,31.21489 15.7177,48.34704 1.0875,17.13215 -1.2268,34.29628 -4.2022,51.20309 -2.5445,14.45809 -5.5933,28.88939 -10.6286,42.67909 -5.0353,13.78971 -12.1295,26.97723 -22.0599,37.78913 -13.599,14.80614 -32.4211,24.7163 -52.3241,27.54957 C 1229.6183,967.34894 1208.7784,963.08481 1191.5879,952.66169 Z"
           style="fill:#ff6d19;fill-opacity:1;stroke:none" />
      </g>
      <g
         style="stroke:none"
         id="g4334"
         transform="matrix(1.0011606,0,0,1.0011586,3.4840607,-3.9401803)">
        <g
           style="stroke:none"
           id="g3130">
          <g
             style="stroke:none"
             id="g3125">
            <path
               style="fill:#d2d3d3;fill-opacity:1;stroke:none;display:inline"
               d="m 1527.9285,1134.5242 c -37.4068,-5.4571 -72.6179,-23.4948 -100.0851,-49.4679 -27.4672,-25.9731 -47.268,-59.6529 -58.2524,-95.82466 -11.3308,-37.31247 -13.3909,-77.515 -5.0605,-115.60979 8.3304,-38.09479 27.1302,-73.96515 54.3568,-101.88145 24.6819,-25.30713 56.2237,-43.95997 90.435,-52.86137 34.2112,-8.90139 71.0022,-7.95589 104.5413,3.21446 34.9663,11.64569 66.0011,34.24443 88.8778,63.13939 22.8768,28.89496 37.6659,63.91904 43.7554,100.26712 10.9547,65.38839 -7.4749,135.8112 -51.6296,185.2684 -20.664,23.1455 -46.6298,41.6386 -75.5291,52.9324 C 1590.4387,1134.9945 1558.6312,1139.0033 1527.9285,1134.5242 Z"
               id="path3123"
               inkscape:connector-curvature="0"
               sodipodi:nodetypes="sssssss"
               inkscape:path-effect="#path-effect3558"
               inkscape:original-d="m 1527.9285,1134.5242 c -80.3632,-13.0367 -136.6532,-73.1481 -158.3375,-145.29256 -21.6843,-72.14449 -8.763,-156.32209 49.2963,-217.49124 55.8492,-58.84068 130.608,-71.99825 194.9763,-49.64691 64.3683,22.35134 118.3461,80.21158 132.6332,163.40651 12.1073,70.50195 -10.152,138.0112 -51.6296,185.2684 C 1653.3896,1118.0255 1592.6939,1145.0306 1527.9285,1134.5242 Z" />
            <path
               style="fill:#e4e4e4;fill-opacity:1;stroke:none;display:inline"
               inkscape:path-effect="#path-effect3184"
               inkscape:original-d="m 1593.5,1086.2994 c 39.9793,-4.4677 90.674,-44.8666 109.4709,-90.91996 18.7969,-46.05334 21.747,-107.33325 14.6195,-147.4786 -7.1275,-40.14535 -12.1953,-50.04387 -48.3993,-78.99282 -36.204,-28.94895 -121.493,-37.7161 -169.9704,-20.39673 -48.4774,17.31937 -73.409,48.16085 -94.281,86.47527 -20.872,38.31442 -29.2688,77.84248 -15.0731,126.56838 14.1957,48.72586 71.2352,111.01476 114.2657,121.84216 C 1547.1628,1094.2245 1553.5207,1090.7671 1593.5,1086.2994 Z"
               id="path3162"
               d="m 1593.5,1086.2994 c 47.3071,-12.2413 87.0751,-47.4891 109.4709,-90.91996 23.1879,-44.967 28.5476,-98.83995 14.6195,-147.4786 -8.6213,-30.10649 -24.7152,-58.50398 -48.3993,-78.99282 -22.7446,-19.67613 -51.923,-31.45102 -81.8382,-34.54098 -29.9152,-3.08996 -60.4774,2.32561 -88.1322,14.14425 -39.9936,17.09179 -74.168,47.91259 -94.281,86.47527 -20.0914,38.52117 -25.7899,84.46501 -15.0731,126.56838 7.1699,28.16849 21.517,54.49146 41.3765,75.71576 19.8596,21.2243 45.196,37.297 72.8892,46.1264 C 1532.9059,1092.5709 1564.2623,1093.865 1593.5,1086.2994 Z"
               inkscape:connector-curvature="0"
               sodipodi:nodetypes="zzzzzzzzz" />
            <path
               style="fill:#ffffff;fill-opacity:1;stroke:none;display:inline"
               inkscape:path-effect="#path-effect3143"
               inkscape:original-d="m 1597.5,1045.9974 c 21.7266,-6.352 69.1896,-30.3753 89.7069,-55.74402 20.5173,-25.36875 26.4004,-57.35508 30.5159,-84.82514 4.1155,-27.47006 3.3512,-55.0912 -3.6646,-76.42476 -7.0158,-21.33356 -18.4433,-35.17027 -32.2786,-48.46798 -13.8353,-13.29771 -27.9287,-22.37452 -48.5757,-29.64197 -20.647,-7.26745 -46.3317,-13.29185 -73.8084,-9.57319 -27.4767,3.71866 -65.5887,22.17733 -84.7498,35.63459 -19.1611,13.45726 -24.3376,22.07642 -32.8899,35.71389 -8.5523,13.63747 -13.7411,26.21663 -17.6372,44.67721 -3.8961,18.46058 -7.1867,41.77692 -2.6062,65.11869 4.5805,23.34177 18.2497,52.91066 32.156,70.57013 13.9063,17.65945 25.9976,25.83645 45.1288,35.33215 19.1312,9.4957 51.7908,15.9666 68.5045,18.0188 C 1584.0154,1048.438 1575.7734,1052.3494 1597.5,1045.9974 Z"
               id="path3121"
               d="m 1597.5,1045.9974 c 36.0155,-4.3554 69.0879,-25.8953 89.7069,-55.74402 17.2288,-24.94098 26.0071,-54.84925 30.5159,-84.82514 3.8307,-25.46763 4.6718,-52.05719 -3.6646,-76.42476 -6.3479,-18.55497 -17.8776,-35.15656 -32.2786,-48.46798 -14.0153,-12.95488 -30.7293,-22.87719 -48.5757,-29.64197 -23.4159,-8.87594 -48.92,-12.34032 -73.8084,-9.57319 -30.8551,3.43051 -60.3669,16.41802 -84.7498,35.63459 -12.7744,10.06772 -24.2796,21.91505 -32.8899,35.71389 -8.5156,13.64712 -14.0706,28.99159 -17.6372,44.67721 -4.8462,21.31351 -6.0893,43.54047 -2.6062,65.11869 4.1705,25.8368 15.2264,50.61214 32.156,70.57013 12.4414,14.66695 27.9555,26.67265 45.1288,35.33215 21.2195,10.6998 44.8051,16.26 68.5045,18.0188 C 1577.357,1047.132 1587.49,1047.2079 1597.5,1045.9974 Z"
               inkscape:connector-curvature="0"
               sodipodi:nodetypes="zzzzzzzzzzzzzzz" />
            <path
               style="fill:#d9d9d9;stroke:none;display:inline"
               inkscape:path-effect="#path-effect3150"
               inkscape:original-d="m 1547.2168,937.98652 c -14.0558,-7.66656 -29.0134,-20.49534 -31.4279,-36.32286 -1.8345,-12.02544 5.4843,-25.3659 14.5636,-33.46178 5.2448,-4.67668 13.2084,-5.14907 20.1635,-6.15156 11.7568,-1.69459 25.212,-5.35071 35.6331,0.34963 8.3286,4.55571 11.7574,15.14689 15.5963,23.82918 2.628,5.94364 5.7774,12.43839 4.8817,18.87508 -1.0116,7.26918 -5.5422,14.23548 -11.1237,19.0011 -10.5996,9.05015 -25.1043,13.60105 -38.9489,15.20802 C 1553.4316,939.67581 1549.9768,939.49192 1547.2168,937.98652 Z"
               id="path3108"
               d="m 1547.2168,937.98652 c -8.2404,-2.11256 -15.7783,-6.84018 -21.3254,-13.2898 -5.547,-6.44963 -9.0882,-14.58684 -10.1025,-23.03306 -0.7672,-6.38841 -0.093,-12.99675 2.3454,-18.95103 2.4386,-5.95429 6.689,-11.22002 12.2182,-14.51075 6.0694,-3.61227 13.251,-4.70142 20.1635,-6.15156 5.9708,-1.25259 11.9074,-2.82811 17.9934,-3.25325 6.086,-0.42514 12.4527,0.39112 17.6397,3.60288 4.1075,2.54338 7.2324,6.43683 9.6228,10.63523 2.3904,4.1984 4.1122,8.73566 5.9735,13.19395 1.2647,3.02936 2.6003,6.03759 3.5694,9.17406 0.9691,3.13646 1.5675,6.42819 1.3123,9.70102 -0.2923,3.74984 -1.7039,7.35847 -3.7165,10.53593 -2.0126,3.17746 -4.6131,5.94727 -7.4072,8.46517 -10.6143,9.56511 -24.6699,15.72384 -38.9489,15.20802 C 1553.4067,939.19962 1550.268,938.76874 1547.2168,937.98652 Z"
               inkscape:connector-curvature="0" />
          </g>
          <path
             id="path3110"
             d="m 1547.5893,938.88179 c -15.4205,-3.6171 -34.1179,-30.21034 -33.6598,-47.87417 0.9278,-35.77302 63.3453,-73.49815 84.7112,-51.19946 10.1572,10.60062 15.0374,41.65203 10.3852,66.07833 -0.5642,2.96257 -1.0259,5.53306 -1.0259,5.7122 0,0.17914 -2.5164,3.15522 -5.592,6.61351 C 1585.9301,936.74045 1567.7248,943.60485 1547.5893,938.88179 Z"
             style="fill:#e7e7e7;stroke:none;display:inline"
             inkscape:connector-curvature="0" />
        </g>
        <g
           style="stroke:none;display:inline"
           id="g1011">
          <path
             style="fill:#9d9d9d;stroke:none"
             d="m 1570,1000.9294 c -153.4074,-16.90088 -160.0224,-228.05308 -7.971,-254.43444 22.0475,-3.8253 69.4393,1.64002 76.6373,8.83797 0.1368,0.13679 -7.7858,20.48035 -17.6057,45.20789 -9.82,24.72755 -17.5485,45.07662 -17.1746,45.22015 0.3739,0.14353 24.065,-4.65139 52.6469,-10.65538 44.1482,-9.27388 52.1361,-10.70216 53.0906,-9.49283 7.3097,9.26166 11.6205,47.25721 7.8285,69.00187 C 1705.9275,960.70111 1639.512,1008.5876 1570,1000.9294 Z"
             id="path1017"
             inkscape:connector-curvature="0" />
          <path
             style="fill:#606060;stroke:none"
             d="M 1564.5,999.89122 C 1476.1923,987.16177 1424.9465,895.3599 1463.2434,818.5 c 29.5459,-59.29703 99.7171,-87.4434 165.4827,-66.37681 11.3076,3.62216 12.4154,-2.97554 -8.2261,48.99028 -9.625,24.23129 -17.5,44.38665 -17.5,44.78968 0,0.40303 23.2776,-4.13531 51.728,-10.08519 C 1683.1784,829.86808 1707.1966,825 1708.1017,825 c 4.1256,0 10.9012,29.80747 10.8943,47.92622 C 1718.9663,951.05672 1645.3593,1011.547 1564.5,999.89122 Z"
             id="path1015"
             inkscape:connector-curvature="0" />
          <path
             style="fill:#000000;stroke:none"
             d="m 1570.5,1000.3691 c -130.461,-14.09308 -164.2795,-178.71821 -49.2743,-239.86249 32.3718,-17.21097 100.6483,-20.0326 115.8915,-4.7894 l -34.6889,91.03675 106.6713,-21.03712 c 4.2858,4.38233 9.3357,30.01408 9.3156,47.28316 C 1718.3268,949.09524 1648.9413,1008.8428 1570.5,1000.3691 Z"
             id="path1013"
             inkscape:connector-curvature="0"
             sodipodi:nodetypes="sscccss" />
        </g>
      </g>
    </g>
  </g>
</svg>
